<svg width="64" height="61" viewBox="0 0 64 61" fill="none" xmlns="http://www.w3.org/2000/svg">
<path d="M29.5557 33.1844C31.6092 32.4999 34.1178 32.8434 35.2777 33.1397C35.2601 33.3455 35.2119 33.6178 35.1134 33.8968C34.9832 34.2656 34.7725 34.626 34.4502 34.8678C33.5368 35.5528 31.7201 36.6857 29.4592 36.9118C28.5693 37.0008 27.3999 36.8338 26.2838 36.5798C25.411 36.3812 24.5853 36.1328 23.9756 35.9244C25.2284 35.1557 27.5924 33.8388 29.5557 33.1844Z" fill="white"/>
<path fill-rule="evenodd" clip-rule="evenodd" d="M34.4799 9.70523C32.9488 7.32666 28.83 1.97107 28.2788 2.33936C27.7276 2.70765 29.4272 8.47753 30.3459 11.3164C26.2883 12.4673 17.5302 15.3216 14.9579 17.5313C14.5518 17.8801 14.0249 18.3024 13.4151 18.791C9.19569 22.1722 1.00595 28.7348 1.40729 36.1761C1.86663 44.6928 8.98644 51.8285 14.9579 52.519C20.9293 53.2096 29.6568 51.1379 35.169 45.6135C39.5786 41.1941 41.4466 36.0994 41.8294 34.1044C42.595 35.3321 44.3558 37.9715 45.2745 38.7081C46.1932 39.4447 47.0353 40.0892 47.3415 40.3194C47.1884 41.8539 47.1578 45.3834 48.2602 47.2248C49.6383 49.5266 52.624 51.8285 55.1504 53.4397C57.1715 54.7288 58.7486 57.6597 59.2845 58.9641C60.8922 55.9717 63.7401 49.1123 62.2702 45.6135C60.8003 42.1148 55.5332 38.9383 53.0833 37.7874C52.8537 36.6364 52.2106 33.9663 51.4756 32.4932C50.7407 31.02 49.6383 29.4241 49.1789 28.8103C50.9397 28.1964 54.7829 26.3243 56.0691 23.7462C57.6768 20.5237 58.8251 17.5313 56.9877 15.4597C55.1504 13.3881 50.3273 11.3165 43.6668 9.70523C38.3384 8.41613 35.9345 9.16813 34.4799 9.70523ZM35.5818 32.7409C34.4782 32.4255 31.7012 31.9797 29.4089 32.7438C27.1527 33.4959 24.4096 35.0869 23.3211 35.7867L22.9319 36.0369L23.3651 36.1993C23.993 36.4348 25.0477 36.7746 26.1808 37.0324C27.3088 37.2891 28.5382 37.4704 29.5054 37.3737C31.8873 37.1355 33.785 35.947 34.7287 35.2391C35.1492 34.9237 35.4028 34.4716 35.5512 34.0512C35.6997 33.6304 35.7502 33.2211 35.7502 32.9641V32.789L35.5818 32.7409Z" fill="white"/>
<path fill-rule="evenodd" clip-rule="evenodd" d="M29.2093 4.8987C28.564 5.35385 28.7034 6.17245 29.8526 8.67554C30.6386 10.3873 30.8682 11.0676 30.8048 11.4973C30.703 12.1896 31.5592 14.8563 33.2766 19.1952C34.6804 22.7421 36.0281 25.5195 38.3166 29.5819L39.9126 32.4154L39.5206 32.7813C39.305 32.9825 38.7606 33.8268 38.3109 34.6575C37.8611 35.4882 36.5247 37.6449 35.3408 39.45C32.3611 43.9936 28.7829 47.4619 23.5362 49.0344C19.0796 50.3706 13.9827 49.482 9.93483 47.3224C7.58354 46.068 7.03137 45.6358 4.96863 43.4351C3.4681 41.8343 2.32155 39.7541 2.32155 39.7541C2.32155 39.7541 2.14393 41.5535 3.87521 45.2752C7.3573 52.7606 18.7496 53.6949 25.4673 51.4786C34.2422 48.5839 38.4569 44.2467 42.0523 35.676L41.8758 33.9097C41.8758 33.9097 46.0449 38.9157 46.7359 39.6334C48.6095 41.5788 48.4934 41.3431 48.4934 43.2016C48.4934 45.1912 48.8771 46.488 50.076 48.5507C51.1874 50.4626 53.4774 52.7046 56.121 54.4683L57.3956 55.3187L57.361 56.1153C57.3333 56.76 57.4051 56.976 57.7383 57.2477C58.4795 57.8521 59.0885 57.6181 59.7446 56.4768C59.9846 56.0591 60.2332 55.4374 60.2968 55.0953C60.3838 54.6281 60.5516 54.407 60.9716 54.2067C62.1987 53.6216 62.7799 51.8252 62.6643 48.9745C62.587 47.0656 62.183 45.8859 61.4761 45.5048C61.0146 45.2562 60.5816 45.4547 60.5816 45.9152C60.5816 46.2004 60.44 46.0789 60.008 45.4217C59.3221 44.3783 58.6078 43.8051 58.1932 43.9654C57.87 44.0903 57.8636 43.9992 58.3695 46.5234C58.8172 48.7561 58.7069 48.9783 57.7994 47.6722C56.515 45.8239 55.2778 44.4319 54.9192 44.4319C54.4327 44.4319 54.4918 44.7819 55.3046 46.713C55.7022 47.6578 56.142 48.7106 56.2817 49.0527L56.5358 49.6748L55.8162 48.875C54.4143 47.3173 53.2083 45.7553 52.8411 45.0216C52.384 44.1086 51.4052 41.433 51.4052 41.0969C51.4052 40.9619 51.8333 40.4572 52.3567 39.9755C53.377 39.0363 53.7905 38.2333 53.9751 36.8323C54.1614 35.4175 53.4746 34.591 52.4631 35.013C51.945 35.2291 51.6812 35.7219 51.5045 36.8033C51.4473 37.1529 51.1715 37.7547 51.1715 37.7547C50.7465 38.1486 49.7609 36.9274 49.4659 36.642L50.4265 35.6353C51.6171 34.3872 52.08 33.307 51.7585 32.5255C51.3637 31.5653 50.2855 31.5625 49.731 32.52C49.5356 32.8575 48.9524 33.5643 48.435 34.0908L47.4944 35.0476C47.2825 34.8472 46.6405 34.1075 46.6405 34.1075C46.6405 34.1075 49.2875 32.3625 49.2875 30.8557C49.2875 30.2075 49.0204 29.8586 48.5239 29.8586C48.3318 29.8586 47.7012 30.3795 47.073 31.0572C46.4619 31.7165 45.9254 32.2163 45.8808 32.168C45.836 32.1196 45.0392 30.9205 44.1099 29.5032C43.1808 28.0858 41.7913 26.0065 41.0222 24.8824C40.2533 23.7583 39.4467 22.4787 39.23 22.0388C39.0131 21.599 38.1204 20.0169 37.246 18.5231C36.3431 16.9806 34.9794 14.2544 34.09 12.2139C31.807 6.97682 31.0829 5.52109 30.524 5.04604C29.9387 4.54841 29.7379 4.52584 29.2093 4.8987ZM33.6825 8.63334C33.293 9.02574 33.3285 9.22285 33.9788 10.2771C35.695 13.0588 46.4338 28.3194 47.1018 28.9256C47.7187 29.4854 48.3116 29.4385 48.786 28.7923C49.0013 28.4991 49.2828 28.2591 49.4116 28.2591C49.9696 28.2591 52.7435 26.9719 53.7487 26.2464C55.3 25.1269 57.3303 22.955 57.7522 21.9636C58.2861 20.7094 58.6406 19.1654 58.6386 18.1033C58.1932 14.6249 54.9192 14.6249 54.9192 14.6249C54.9192 14.6249 56.2771 16.0776 56.121 17.5977C55.7277 21.4225 53.2667 24.1564 49.7181 25.5887L48.0593 26.2583L45.6293 22.811C44.2929 20.9151 43.176 19.2958 43.1478 19.2125C43.1194 19.1293 43.437 18.8842 43.8537 18.6679C45.4223 17.8536 46.0747 16.7889 45.7442 15.5832C45.5368 14.8268 44.9764 14.3016 44.0104 13.9585C43.0751 13.6261 41.1422 13.6163 40.2436 13.9393L39.5822 14.1769L38.2771 12.3764C36.3071 9.65864 34.9564 8.35414 34.1122 8.35414C34.0284 8.35414 33.8351 8.47984 33.6825 8.63334ZM25.9053 17.5977C24.6268 17.8298 23.5445 18.2478 22.8584 18.7749C20.3552 20.6979 21.7359 23.4556 25.1994 23.4512C28.7281 23.4467 30.694 22.7044 31.0859 21.2288C31.4419 19.8884 30.8336 18.4582 29.6421 17.8341C29.0205 17.5085 27.0749 17.3853 25.9053 17.5977ZM16.6407 23.6968C15.2651 24.0835 14.1327 24.7567 12.9066 25.9164C11.0042 27.7156 10.4771 29.3909 11.4477 30.5525C12.3053 31.579 13.614 31.6133 15.4491 30.6577C17.7713 29.4484 19.3168 27.6988 19.7193 25.8238C19.8596 25.1703 19.4808 24.2008 18.9565 23.871C18.4128 23.529 17.4854 23.4592 16.6407 23.6968ZM32.6111 29.7797C31.7089 30.0903 22.0192 30.9385 25.5668 33.7483C26.3002 34.3293 26.6175 34.3483 27.5327 33.8663C28.5388 33.3365 31.4627 32.5817 33.2766 32.5255C36.3099 32.4316 35.6661 33.5819 35.6661 33.5819C35.6661 33.5819 36.3806 30.7672 35.1193 30.2228C34.3954 29.9102 32.9662 29.6578 32.6111 29.7797ZM9.67013 35.1608C8.81178 35.5719 8.2762 36.1355 7.91391 37.0088C7.56132 37.8585 7.57613 38.612 7.96807 39.7541C8.67536 41.8153 9.72678 42.6703 11.6104 42.7162C12.6733 42.742 12.7721 42.7089 13.3721 42.1242C14.654 40.8752 14.9091 38.1531 13.8981 36.5137C13.0001 35.0572 11.1337 34.4599 9.67013 35.1608Z" fill="black"/>
<path fill-rule="evenodd" clip-rule="evenodd" d="M26.194 0.437554C25.7724 0.858714 25.6804 1.21356 25.7578 2.1188C25.7958 2.56524 27.12 5.91749 28.3791 8.75537C28.7673 9.63057 29.0286 10.4072 28.9598 10.4812C28.8908 10.5551 27.2941 11.1365 25.4115 11.773C23.529 12.4093 21.7506 13.0531 21.4597 13.2035C21.1689 13.3538 19.9275 13.8733 18.7013 14.3581C14.4275 16.0471 13.554 16.6601 8.38169 21.599C5.29555 24.546 4.04493 26.081 2.42472 28.911C0.111532 32.9517 -0.566945 36.8924 0.477042 40.224C0.885189 41.5261 3.05508 45.5388 4.05147 46.8337C4.98312 48.0445 6.6587 49.4651 8.29164 50.4287C8.99577 50.844 10.0007 51.4817 10.5247 51.8458C11.905 52.8046 13.0919 53.1853 15.6339 53.4843C22.3201 54.271 26.6406 53.3156 31.2652 50.0275C35.004 47.3691 38.1941 44.355 39.6434 42.1114C40.3584 41.0046 41.1299 39.4745 42.0962 37.2469L42.3152 36.7423L42.9624 37.7163C43.9001 39.1278 44.6647 39.9478 45.6197 40.5661L46.4611 41.111L46.5333 43.1443C46.654 46.5365 47.4763 48.7441 49.2414 50.414C49.8031 50.9455 51.4967 52.2523 53.0049 53.3179C54.5131 54.3835 56.076 55.5821 56.4781 55.9813C57.2265 56.7246 58.6663 59.3979 58.6663 60.0443C58.6663 60.8534 59.681 61.1124 60.1663 60.4271C60.3211 60.2082 60.6176 59.4723 60.8252 58.7916C61.0325 58.1109 61.5479 56.8682 61.9702 56.0299C63.843 52.3129 64.1316 47.6839 62.7184 44.0283C61.5035 40.8857 58.665 38.3445 55.4234 37.4974L54.3355 37.2131L54.284 36.4216C54.1846 34.8892 53.6001 33.5939 51.855 31.0396L50.708 29.3606L52.7521 28.3786C55.5311 27.0436 56.6878 25.8912 58.0485 23.1026C59.5802 19.9632 59.7184 17.9729 58.5679 15.6173C57.9098 14.2695 56.573 13.1588 53.9624 11.791C49.9761 9.70217 48.0875 9.07557 43.1724 8.21027C40.2862 7.70217 38.6463 7.71017 36.0465 8.24457C35.3309 8.39167 34.7257 8.48737 34.7014 8.45697C34.6772 8.42657 33.5602 6.8901 32.2189 5.04247C30.8777 3.19485 29.5325 1.41777 29.2296 1.0935C28.1385 -0.0746462 26.9612 -0.329076 26.194 0.437554ZM31.6622 8.17287C33.5961 10.8255 34.5942 11.8646 35.5177 12.1864C36.1415 12.4037 36.2963 12.1648 36.1246 11.2498C35.9857 10.5095 36.0428 10.4839 38.4043 10.2261C40.0557 10.0459 40.3957 10.067 42.8635 10.5019C47.4506 11.3103 48.5898 11.6726 52.1532 13.4565C55.759 15.2617 56.505 15.9456 56.9038 17.8118C57.1722 19.067 56.8967 20.3012 55.9081 22.2749C54.8413 24.4047 53.7105 25.4401 51.1998 26.586L49.3217 27.4433L48.3769 26.746C47.4939 26.0943 46.4245 25.4636 46.2025 25.4636C45.715 25.4636 47.4428 29.0572 48.3815 29.9959C48.7573 30.3718 49.4038 31.3557 49.8181 32.1823C50.2323 33.0088 50.6891 33.7534 50.8331 33.8367C51.5462 34.2491 52.2235 36.9479 51.7867 37.6368C51.6717 37.818 52.3204 38.2234 54.474 39.3164C58.4285 41.3235 59.8709 42.7183 60.7792 45.413C61.2526 46.8171 61.2381 47.9122 60.7119 50.55C60.2783 52.7235 59.8088 53.835 59.0249 54.5439C58.6394 54.8925 58.639 54.8925 58.3029 54.4553C58.1178 54.2146 57.9646 53.9376 57.9625 53.8396C57.9581 53.6358 56.053 52.3361 55.1279 51.9059C54.0445 51.4018 50.7298 48.8332 50.1746 48.0673C49.4685 47.0931 48.9655 45.4122 48.8452 43.6232C48.7915 42.825 48.6551 41.4757 48.542 40.6248C48.3571 39.2337 48.2987 39.0777 47.9631 39.0777C47.4545 39.0777 46.0032 38.1348 45.7365 37.6309C45.617 37.4057 45.2625 36.903 44.9483 36.514C44.6343 36.1251 43.7221 34.6717 42.9214 33.2845C41.1274 30.1766 40.5167 29.6198 39.7059 30.3532C39.2135 30.7986 39.3149 31.5666 40.0415 32.8945L40.7007 34.0992L40.1917 35.5718C38.4303 40.6663 36.3432 43.3481 31.0897 47.2667C28.2969 49.3498 26.8393 50.1324 24.4328 50.841C22.4128 51.4358 20.4952 51.5551 17.1605 51.2938C13.9588 51.0427 13.0557 50.8023 11.6886 49.8374C11.1082 49.4276 9.9168 48.62 9.04106 48.0425C6.39774 46.2997 5.65841 45.4371 3.75549 41.8753C2.43799 39.4092 2.13458 38.0538 2.4042 35.8372C2.63702 33.9238 3.0825 32.5324 4.02688 30.7678C5.52165 27.9752 6.66241 26.5091 9.48141 23.758C14.4491 18.9098 15.6873 17.9929 18.9624 16.7367C19.8303 16.4037 21.1776 15.8505 21.956 15.5073C24.0671 14.5766 29.8921 12.6584 29.9629 12.8706C29.9963 12.9709 30.4264 13.7279 30.9188 14.5533C31.9297 16.248 32.444 16.6283 33.1235 16.1832C33.7102 15.7992 33.6624 15.1804 32.9273 13.6478C32.5882 12.9404 31.9557 11.4648 31.5219 10.3684C31.0879 9.27207 30.45 7.73157 30.1039 6.94526C29.0861 4.63175 29.073 4.62132 31.6622 8.17287ZM32.2971 30.032C32.0762 30.2107 31.9504 30.4455 32.0173 30.5539C32.0843 30.6621 32.6572 31.0056 33.2904 31.3172C33.9237 31.6287 34.4771 31.9408 34.5203 32.0106C34.5634 32.0804 33.9007 32.0978 33.0474 32.0491C31.6486 31.9694 29.7212 32.1319 28.0741 32.4683C27.5602 32.5734 27.4861 32.5488 27.5802 32.3036C27.7286 31.9172 27.0779 31.475 26.3612 31.475C24.7095 31.475 22.6982 33.2977 22.3132 35.1432C22.0245 36.5282 23.0893 37.8327 24.8203 38.2138C26.3004 38.5397 30.0096 38.4923 31.4011 38.1295C33.9058 37.4766 35.7458 35.9974 36.777 33.8075C37.591 32.0788 37.2522 30.9482 35.6695 30.1117C34.6737 29.5853 32.9008 29.5434 32.2971 30.032ZM33.8331 34.2002C32.7078 35.6747 29.5234 36.4762 26.337 36.0867C24.9358 35.9154 24.5255 35.8077 24.7129 35.6604C24.908 35.5071 28.825 34.2769 29.9173 34.026C31.037 33.7686 34.0628 33.4288 34.2321 33.5414C34.2701 33.5665 34.0905 33.863 33.8331 34.2002Z" fill="#323239"/>
</svg>
