<svg width="58" height="61" viewBox="0 0 58 61" fill="none" xmlns="http://www.w3.org/2000/svg">
<path d="M33.8349 3.4114C30.6179 2.4284 26.8319 1.6044 23.2409 1.3834C21.5629 1.2804 14.8779 0.937397 14.0079 2.9594C13.5179 4.1004 13.8479 7.3674 12.7239 7.8624C12.2219 8.0824 10.6419 7.5124 8.91094 6.9784C6.74494 6.3094 4.31594 5.6384 3.05794 5.3464C2.27494 5.8064 1.79794 5.9924 1.01294 6.4454C0.858847 6.53428 0.676028 6.55914 0.503797 6.51463C0.331566 6.47012 0.183679 6.35981 0.091939 6.2074C0.0474178 6.13227 0.0182955 6.04904 0.00626952 5.96255C-0.0057565 5.87605 -0.000445675 5.78803 0.0218926 5.70361C0.0442309 5.61919 0.0831497 5.54006 0.136381 5.47083C0.189611 5.40161 0.256089 5.34367 0.331939 5.3004C1.07794 4.8704 2.07294 3.9984 2.89594 3.9984C3.11094 3.9984 3.43194 4.0614 3.74894 4.1334C6.51694 4.7634 9.22394 5.6864 11.9259 6.5404C12.1019 5.2194 12.0209 2.4894 13.2819 1.7634C15.9789 0.213397 19.6169 -0.166603 23.3249 0.0603972C27.0509 0.289397 30.9459 1.1404 34.2349 2.1454C43.8549 5.0874 50.2299 10.0024 53.0309 15.5224C53.8359 17.1094 52.4319 19.8794 51.8989 21.4764C53.2699 22.2264 54.6819 23.1544 56.1949 23.5804C56.7089 23.7254 56.9399 24.1374 57.0249 24.4884C57.1049 24.8194 57.0829 25.1834 57.0399 25.4894C56.1409 31.9414 49.2759 39.2474 42.3349 39.2474C42.2472 39.2481 42.1602 39.2314 42.0789 39.1985C41.9976 39.1655 41.9236 39.1169 41.8611 39.0553C41.7986 38.9937 41.7489 38.9204 41.7147 38.8397C41.6805 38.7589 41.6626 38.6721 41.6619 38.5844C41.6619 38.2184 41.9629 37.9214 42.3349 37.9214C48.6129 37.9214 54.8989 31.1084 55.7069 25.3094C55.7346 25.1492 55.7393 24.9859 55.7209 24.8244C53.9909 24.2744 52.3689 23.2644 50.7949 22.3874C50.4989 22.2224 50.3309 21.9004 50.4469 21.5694C51.0209 19.9234 51.7759 18.0664 51.8269 16.3084C49.0639 11.3984 42.3349 6.0104 33.8349 3.4114ZM34.2589 39.9104C34.6309 39.9104 34.9319 40.2074 34.9319 40.5734C34.9319 41.2164 34.7149 42.1554 34.3769 42.9934C33.0429 46.3024 29.5969 45.4134 27.1519 47.1254C26.5591 47.547 25.974 47.9794 25.3969 48.4224C27.1579 49.3924 28.9909 50.5734 30.2489 52.1764C31.5689 53.8574 31.4369 56.7234 30.8619 58.7074C30.7049 59.2494 29.8269 59.4304 29.3799 59.6314C29.2182 59.705 29.0341 59.712 28.8672 59.651C28.7003 59.5901 28.5641 59.4659 28.4879 59.3054C28.4511 59.226 28.4304 59.1401 28.4272 59.0526C28.4239 58.9651 28.4381 58.8779 28.4689 58.796C28.4997 58.7141 28.5465 58.6391 28.6066 58.5755C28.6667 58.5118 28.7389 58.4608 28.8189 58.4254L29.6389 58.0554C29.9739 56.4594 30.2639 54.3644 29.1839 52.9884C27.8439 51.2804 25.7759 50.0654 23.8639 49.1234C23.7644 49.0733 23.6791 48.9991 23.6157 48.9074C23.5524 48.8158 23.5131 48.7097 23.5014 48.5989C23.4898 48.4881 23.5062 48.3761 23.5491 48.2733C23.592 48.1705 23.66 48.0801 23.7469 48.0104L23.7489 48.0084L23.7789 47.9854C24.0563 47.7676 24.3303 47.5455 24.6009 47.3194C25.4349 46.6294 26.3039 45.9094 27.2559 45.4934C29.2809 44.6064 32.1579 44.9044 33.1259 42.5034C33.4259 41.7594 33.5859 40.9934 33.5859 40.5734C33.5859 40.2074 33.8869 39.9104 34.2589 39.9104Z" fill="#FAFA19"/>
<path fill-rule="evenodd" clip-rule="evenodd" d="M13.7512 3.51841L12.2692 8.65841L3.4592 5.75241L1.0892 6.79541C0.596196 8.98141 -0.0948039 14.3954 1.0892 18.5654C2.5702 23.7814 7.0872 27.3574 8.7892 28.1764C10.1522 28.8324 11.2822 29.3434 11.6772 29.5174C11.9242 30.2374 12.5512 31.9754 13.0842 33.1674C13.5089 34.1083 13.9785 35.0284 14.4912 35.9244C14.2442 36.1724 13.8982 36.9374 14.4912 38.0104C14.6832 38.3584 14.9162 38.7274 15.1612 39.1164C15.8592 40.2234 16.6602 41.4934 16.9342 42.9264C17.2302 44.4764 17.0572 46.5024 16.9342 47.3224C15.7002 47.2724 12.7882 47.2774 11.0112 47.6944C9.2342 48.1114 8.2962 49.2094 8.0492 49.7064L6.8642 52.5364C7.4572 54.0264 10.2112 57.3794 16.4902 58.8694C22.7682 60.3594 26.6582 59.4894 27.8182 58.8694C28.0892 57.7514 28.4692 55.2194 27.8182 54.0274C27.1662 52.8354 23.9932 50.2524 22.4872 49.1104C22.9812 47.9924 24.3532 45.5794 25.8932 44.8634C26.7932 44.4454 27.7592 44.1574 28.6462 43.8934C29.6542 43.5934 30.5592 43.3234 31.1502 42.9274C32.0382 42.3314 32.4082 41.7354 32.4822 41.5114C33.0502 41.2634 34.4672 40.5434 35.5922 39.6494C36.7182 38.7554 37.0482 38.4824 37.5172 38.0094C39.4172 38.0844 43.0262 37.7274 44.9212 36.5944C49.8812 33.6324 51.4672 30.9464 54.0282 25.7924L48.1782 22.5144L50.2522 16.1074C48.4512 13.6244 43.1292 7.48141 34.7782 4.26341C26.4262 1.04541 17.1072 2.17841 13.7502 3.51941L13.7512 3.51841ZM6.7152 11.5634L11.0842 12.6814L10.1952 21.7694C9.2332 21.2734 7.1892 19.5194 6.7152 16.4804C6.2422 13.4404 6.5182 11.9364 6.7152 11.5634Z" fill="white"/>
<path fill-rule="evenodd" clip-rule="evenodd" d="M14.1367 3.39839C13.6337 3.84039 12.8527 6.20439 12.7527 7.58839C12.6797 8.60539 12.6907 8.65139 13.0757 8.90139C13.4577 9.15039 14.6157 9.41839 14.9757 9.14839C14.9757 9.14839 15.1427 8.10439 15.7777 6.09939C16.3957 4.14639 16.4337 3.71439 16.0197 3.30339C15.6317 2.91739 14.6037 2.98739 14.1367 3.39839ZM2.15865 5.98739C1.52165 6.29339 1.06665 7.14339 0.713655 8.68139C0.311655 10.4294 0.353655 15.4914 0.786655 17.4614C1.18565 19.2784 2.15865 21.3794 3.17365 22.7074C5.20365 25.3644 6.24165 26.4954 8.79065 28.1674C11.0297 29.6354 12.7407 28.6594 13.1517 28.1674C13.5327 27.7114 14.9517 28.2064 13.6057 27.4494C12.5477 26.8544 10.6807 25.7844 8.99065 24.1094C5.82065 20.9694 5.21465 19.9154 4.28865 15.9094C3.80865 13.8344 3.81365 10.3254 4.30065 7.77539C4.63765 6.00539 4.64365 5.88239 4.40865 5.52539C4.11865 5.08539 2.86465 5.64639 2.15865 5.98739ZM12.8677 12.3254C12.6655 12.5745 12.4231 12.7881 12.1507 12.9574C11.3527 13.4074 10.6097 15.5124 10.3047 18.1904C9.88365 21.8804 12.7747 26.9954 12.7527 20.5674C12.7447 17.9914 12.9177 17.0254 13.1527 15.7714C13.6657 14.8424 14.8737 13.5484 14.8857 12.3774C14.8937 11.5804 13.3837 11.6574 12.8677 12.3254ZM41.4207 34.0694C45.6167 33.0284 47.8907 30.6894 49.6717 26.9134C48.7197 26.2564 47.8137 25.8804 46.6987 25.2904C44.7437 28.9724 43.7267 30.6504 41.4207 34.0694ZM12.3857 31.2464C12.8447 33.9044 15.4257 34.8794 13.9777 36.5874C13.7647 36.8384 13.6057 37.2124 13.6057 37.4614C13.6057 37.7094 14.8457 38.4574 15.4057 39.5284C16.5127 41.6474 16.8757 43.0014 16.8797 44.9144C16.8827 45.9244 16.4437 48.0694 18.2997 48.0694C18.9397 48.0694 20.3967 47.1594 20.6967 45.9674C21.1117 44.3144 21.1787 43.5024 21.0027 42.2774C20.7477 40.5094 20.1787 39.4934 18.6187 38.0214C17.3847 36.8594 16.3387 36.4744 16.3387 35.9454L15.9507 34.3314C15.3887 33.5744 15.2197 33.2514 14.8857 32.2974C14.6177 31.5324 14.3877 31.5114 14.5417 30.5274C14.6957 29.5454 14.8917 29.1314 14.7367 28.9474C13.5837 27.5684 12.2167 30.2664 12.3857 31.2474V31.2464ZM7.30366 51.5534C5.99566 54.6864 18.3557 59.0704 19.6947 59.3004C23.7597 60.0004 26.5497 59.6084 27.1497 59.3004C28.0937 58.8164 28.2137 57.7324 27.4427 56.6364C24.8827 52.9914 19.7537 50.8774 15.3897 50.2254C12.8617 49.8474 7.96766 49.9624 7.30366 51.5534Z" fill="black"/>
<path fill-rule="evenodd" clip-rule="evenodd" d="M9.95596 6.39838C11.241 6.84938 12.002 7.01738 12.002 7.01738C12.002 7.01738 12.574 3.46438 12.967 2.94438C20.969 -2.68162 46.147 3.68438 51.421 15.4574L51.431 15.5034C51.486 15.7734 51.621 16.4374 51.421 17.2334C51.213 18.0634 50.103 21.4804 50.103 21.4804C50.103 21.4804 53.985 23.5274 55.459 24.5354C55.813 24.7784 55.835 25.3364 55.679 25.9284C55.377 27.0674 52.963 31.2734 51.132 33.3004C47.849 36.9344 42.466 39.3864 37.576 39.2644C36.477 40.3754 35.671 41.1484 33.669 41.7234C33.576 41.7234 33.461 41.9064 33.414 42.1304C33.297 42.6864 32.817 43.4364 32.402 43.7104C32.214 43.8354 31.191 44.1364 30.129 44.3804C28.019 44.8644 27.333 45.1644 25.745 46.2974C24.448 47.2224 23.518 48.3874 24.077 48.3874C24.152 48.3874 24.817 48.7944 25.555 49.2934C27.323 50.4884 28.73 51.9394 29.433 53.2894L29.987 54.3564L29.887 56.0734C29.757 58.3154 29.625 58.7804 28.959 59.3354C27.956 60.1704 26.1 60.5624 23.134 60.5634C19.964 60.5644 16.847 59.7444 13.171 57.9434C11.079 56.9174 9.99496 56.1704 8.42596 54.6744C7.09896 53.4104 6.80596 52.9234 6.75996 51.9194C6.72896 51.2144 6.81696 50.9334 7.52396 49.4954C7.96396 48.6004 8.45796 47.7514 8.62396 47.6084C9.13396 47.1674 10.927 46.3284 11.926 46.0654C12.602 45.8864 13.462 45.8154 14.893 45.8164L16.908 45.8194V45.7414C16.908 44.8754 16.908 44.0084 16.69 43.1634C16.333 41.7774 15.11 39.4974 14.042 38.2274C13.148 37.1644 13.074 37.0244 13.14 36.5244C13.18 36.2244 13.362 35.7764 13.544 35.5274L13.874 35.0744L13.342 34.0494C12.9368 33.2363 12.5652 32.4069 12.228 31.5634C11.908 30.7584 11.561 30.0534 11.457 29.9974C11.352 29.9414 10.759 29.6574 10.138 29.3664C6.92996 27.8614 2.36996 22.6004 1.29696 19.1654C0.62696 17.0244 0.44696 15.5474 0.43596 12.1084C0.42496 8.89838 0.63296 7.09038 1.13496 6.03738C1.32996 5.62838 3.26996 4.56838 3.83596 4.56038C4.29296 4.55438 7.13196 5.40738 9.95596 6.39938V6.39838ZM7.06596 7.38838C8.64396 7.91038 13.939 9.96238 14.105 10.1184C14.199 10.2064 13.965 11.5104 13.859 11.4864C13.803 11.4734 13.575 11.5534 13.351 11.6624C12.976 11.8464 12.708 11.7824 9.93796 10.8504C8.13796 10.2444 6.87896 9.89338 6.79996 9.97338C6.72696 10.0474 6.59096 10.8734 6.49896 11.8094C6.06096 16.2384 7.07596 19.4494 9.84096 22.3774C10.534 23.1124 12.544 24.7194 12.967 24.8774C13.122 24.9344 13.234 25.2304 13.299 25.7544C13.353 26.1894 13.433 26.7444 13.477 26.9894C13.556 27.4194 13.532 27.4414 12.693 27.7094C12.156 27.8804 11.29 27.6674 10.325 27.2294C8.49296 26.3984 4.20496 21.6104 3.09896 18.7704C2.56196 17.3924 2.42996 16.5124 2.31996 13.5784C2.23996 11.4464 2.26996 10.6784 2.48396 9.32838L2.74396 7.67838L3.56296 7.24838C4.01296 7.01338 4.56696 6.81038 4.79596 6.79838C5.02396 6.78638 6.04596 7.05238 7.06596 7.38838ZM9.68096 13.1704L10.786 13.4954L10.696 14.1554C10.648 14.5184 10.536 15.5884 10.449 16.5344C10.362 17.4794 10.242 18.6524 10.18 19.1414L10.07 20.0294L9.46996 18.7704C8.72196 17.1984 8.26696 15.5104 8.15696 13.8974C8.07996 12.7604 8.09396 12.6594 8.32396 12.7484C8.46296 12.8024 9.07396 12.9924 9.68096 13.1704ZM17.241 48.1704C20.435 48.7354 23.933 50.3534 26.238 52.3314C27.018 53.0004 27.445 53.8254 27.686 55.1264L27.792 55.6964L27.075 55.0964C26.155 54.3264 24.833 52.9204 23.372 52.3314C21.849 51.7174 20.735 51.6784 20.735 51.6784C20.708 51.7064 21.019 52.3684 21.57 52.5864C22.745 53.0514 24.45 54.1514 25.553 55.1534C26.453 55.9714 27.456 57.2064 27.456 57.4964C27.456 58.1494 22.384 58.4634 20.057 57.9544C16.11 57.0904 11.703 54.9774 9.41296 52.8484L8.65696 52.1464L9.00896 51.2064C9.45496 50.0184 10.499 48.8214 11.387 48.4784C12.856 47.9114 15.107 47.7934 17.241 48.1704ZM40.36 36.4804C44.755 32.7384 47.319 28.4884 49.004 23.9714C50.068 24.5644 50.819 24.9614 51.377 25.2554C51.935 25.5504 52.3 25.7434 52.593 25.9284C51.934 29.5804 46 35.9664 40.36 36.4804ZM29.888 42.1304C29.888 42.1304 23.134 42.6284 22.265 47.2924C21.167 46.6264 20.255 46.3824 19.189 46.1824C19.189 46.1824 20.058 41.5174 16.232 37.4774C17.242 35.9644 20.727 36.8534 23.584 37.7414C26.441 38.6304 30.836 41.0734 29.888 42.1304ZM49.011 15.9934L48.636 17.4794C47.836 20.7194 45.796 25.1094 44.323 27.6534C42.323 31.1054 37.629 36.7514 34.643 38.9884L34.538 39.0684C33.474 39.8654 33.041 40.1284 32.754 40.0984C32.6 40.0814 32.194 39.7334 32.083 39.6134C31.143 38.7384 29.668 37.7194 27.767 36.7974C24.6 35.2614 21.897 34.1414 18.413 33.9934L15.899 34.1314L15.587 33.5984C15.187 32.9114 14.049 30.1334 14.049 30.1334C14.049 29.9374 14.503 29.5244 14.98 29.5244C15.879 29.5244 15.83 28.2214 15.68 27.6904C15.561 27.2704 15.457 26.6004 15.366 26.0124C15.321 25.7234 15.279 25.4554 15.24 25.2474C14.911 23.4774 14.57 22.9134 13.358 22.3214L13.115 22.2034C12.434 21.8754 12.32 21.8214 12.235 21.2494C12.095 20.3044 12.572 15.4374 12.823 14.5854L12.829 14.5624C12.884 14.3724 12.964 14.0994 13.358 14.0994C13.98 14.0994 15.174 13.7874 15.46 13.4394C15.776 13.0544 16.339 10.7224 16.339 10.0614C16.339 8.99138 16.175 8.64138 15.124 8.14438C14.7906 7.98714 14.4532 7.83875 14.112 7.69938C14.323 6.73938 14.792 4.50338 14.792 4.50338C24.022 -0.013623 45.031 8.17938 49.011 15.9934Z" fill="#323239"/>
</svg>
