<svg width="68" height="60" viewBox="0 0 68 60" fill="none" xmlns="http://www.w3.org/2000/svg">
<path d="M27.4109 1.26022L31.1909 10.8702C38.2289 9.76723 52.7109 7.46722 54.3489 7.08922C56.3969 6.61622 58.4449 7.40422 59.0759 9.60922C59.7059 11.8152 64.9039 32.9242 65.5339 34.8142C66.1639 36.7042 66.4799 37.9652 66.3219 39.0682C66.1649 40.1712 62.0689 45.0542 60.3359 45.8422C58.6029 46.6302 51.9859 48.8352 43.9519 50.7252C35.9179 52.6152 17.9589 57.1852 15.5959 57.8152C13.2329 58.4452 10.8699 58.2872 9.92493 56.7122C8.97993 55.1362 7.71893 51.6712 4.56893 39.5412C1.41793 27.4102 0.787927 24.7322 1.10293 23.6302C1.41793 22.5272 4.09593 16.3832 5.51293 15.9102C6.64793 15.5322 19.7439 13.0222 26.1509 11.8152L23.3149 4.25222C23.3679 3.56922 23.7559 2.01522 24.8909 1.25922C26.0249 0.503224 27.0429 0.944224 27.4109 1.25922V1.26022Z" fill="white"/>
<path fill-rule="evenodd" clip-rule="evenodd" d="M23.5872 3.25343C22.7102 3.88143 22.7012 4.18443 23.5162 5.78343C23.9032 6.54443 24.6662 8.12343 25.2102 9.29343L26.3082 11.9084H28.5442C28.4602 11.3374 25.5032 3.95843 25.1442 3.42343C24.7022 2.76743 24.3242 2.72543 23.5872 3.25343ZM1.57724 22.1334C0.941244 24.5724 0.888244 25.0304 1.09024 26.3494C1.19424 27.0254 1.38724 27.8784 1.52024 28.2434C1.65424 28.6084 1.93524 29.7224 2.14524 30.7184C3.41724 36.7504 4.67424 41.2754 7.08824 48.5204C7.85324 50.8164 8.56224 53.0134 8.66224 53.4034C9.01024 54.7504 9.90224 56.3284 10.6942 56.9964C12.2272 58.2884 12.8082 58.4914 13.7612 58.0654C14.0342 57.9434 14.6822 57.8074 15.2022 57.7624C24.9112 55.9244 45.7512 50.4104 57.5002 46.7744C59.3092 46.3614 59.7522 46.1304 62.1362 44.3574C63.9602 43.0004 66.1652 39.8554 66.1652 39.8554L65.6652 38.1224C65.6652 38.1224 65.0622 39.8264 62.6992 40.4854C61.8762 40.7154 60.4742 41.0954 59.3912 41.4284C58.3072 41.7614 56.8542 42.1534 56.1612 42.2984C53.8412 42.7834 41.9852 45.9924 40.6872 46.4854C40.2602 46.6484 38.6952 47.0924 34.8942 48.1284C33.8542 48.4114 30.8772 49.2594 28.2782 50.0134C25.6782 50.7664 22.6652 51.5804 21.5822 51.8214C20.4992 52.0624 19.0942 52.4154 18.4592 52.6054C16.1662 53.2934 14.7692 53.3154 13.5292 52.6824C12.9032 52.3624 11.6812 49.2874 10.5562 45.1984C10.1519 43.7262 9.73956 42.2562 9.31924 40.7884C8.05524 36.4304 6.92924 32.1424 6.13424 28.6704C5.62691 26.532 5.05767 24.4088 4.42724 22.3034C4.19824 21.5644 3.92324 19.6914 4.56924 16.8554C4.56924 16.8554 1.81424 21.2194 1.57624 22.1334H1.57724ZM42.7612 18.5784C41.9482 18.7734 40.6192 19.5804 40.1872 20.1414C39.9622 20.4344 39.5172 20.9824 39.1992 21.3594C38.4552 22.2414 38.1892 23.3804 38.4292 24.6694C38.6442 25.8374 39.1672 26.7094 40.2452 27.6934C41.9692 29.2694 43.8832 29.5454 45.8422 28.5004C46.3822 28.2124 47.0122 27.7354 47.2402 27.4404C47.4682 27.1454 47.9452 26.5564 48.3002 26.1314C48.6542 25.7074 49.0262 25.0864 49.1262 24.7524C49.3812 23.9024 49.3532 22.5774 49.0602 21.5914C48.4092 19.3964 45.3852 17.9514 42.7602 18.5784H42.7612ZM45.7512 20.6004C46.7942 21.1794 47.1112 21.6524 47.2132 22.7864C47.3542 24.3404 46.6232 25.4184 45.1472 25.8314C44.1802 26.1014 43.4262 25.9284 42.6922 25.2644C41.5162 24.2024 41.0562 22.4444 41.6532 21.2944C42.2432 20.1554 44.3162 19.8044 45.7512 20.6004ZM23.4732 21.1094C23.3432 21.1934 22.9702 21.2634 22.6442 21.2644C21.8822 21.2674 19.4902 21.8004 18.3912 22.2114C17.2412 22.6414 16.7852 23.1474 16.7852 23.9914C16.7852 24.4994 16.6952 24.7294 16.3922 24.9894C16.0502 25.2834 16.0042 25.4394 16.0362 26.2044C16.0562 26.6864 16.2082 27.5144 16.3732 28.0444C16.5872 28.7334 16.6202 29.0214 16.4892 29.0594C14.4352 29.6604 14.4312 29.6634 14.0122 30.4824C13.7922 30.9154 13.3902 31.4884 13.1222 31.7554C12.4042 32.4674 12.2762 33.1194 12.5462 34.6854C12.8392 36.3774 13.3562 38.1274 13.6672 38.4774C13.8612 38.6954 14.1632 38.7524 15.1092 38.7474C16.2502 38.7434 18.3792 38.5254 18.8992 38.3604C19.0982 38.2974 19.2132 38.6084 19.4992 39.9734C19.9932 42.3384 20.3542 43.0104 21.3192 43.3624C22.0542 43.6304 22.1212 43.6294 23.4452 43.3154C25.4652 42.8374 27.2532 42.2194 27.5882 41.8844C27.7682 41.7034 27.8862 41.3594 27.8902 40.9974C27.8952 40.5074 27.9812 40.3534 28.4022 40.0904C28.7402 39.8774 28.9772 39.5544 29.1182 39.1124C29.3042 38.5254 29.2902 38.3054 29.0002 37.1574C28.8202 36.4454 28.6902 35.8524 28.7122 35.8374C28.7322 35.8244 29.1372 35.6774 29.6102 35.5104C30.2322 35.2924 30.5722 35.0584 30.8352 34.6674C31.0352 34.3704 31.4102 34.0244 31.6672 33.8994C32.3912 33.5494 32.5632 32.7044 32.2392 31.0974C31.9862 29.8394 31.0792 26.8974 30.8212 26.4944C30.5312 26.0414 29.9462 25.9874 28.7032 26.2984C28.1353 26.4423 27.5649 26.5763 26.9922 26.7004C26.4342 26.8104 26.5532 27.0664 25.6732 23.8664C25.2582 22.3544 24.8602 21.5314 24.3852 21.1984C23.9792 20.9134 23.8022 20.8964 23.4732 21.1084V21.1094ZM23.8432 25.7564C24.1532 26.9694 24.4282 28.1674 24.4532 28.4194C24.4792 28.6934 24.6622 28.9994 24.9112 29.1834L25.3252 29.4914L27.3952 28.9784C28.5322 28.6964 29.4852 28.4934 29.5112 28.5284C29.6132 28.6624 30.5852 31.8494 30.5362 31.8844C30.5062 31.9054 30.1642 32.0114 29.7742 32.1204C26.8112 32.9504 26.4372 33.1124 26.2092 33.6574C26.0112 34.1314 26.0292 34.3614 26.3892 35.9574C26.6072 36.9314 26.8242 37.8474 26.8692 37.9934C26.9372 38.2064 26.7032 38.3334 25.6462 38.6554C24.9272 38.8734 24.0432 39.1004 23.6812 39.1574L23.0222 39.2624L22.8622 38.6524C22.7752 38.3184 22.5552 37.4424 22.3732 36.7054C21.9362 34.9294 21.7632 34.5214 21.3202 34.2314C20.9822 34.0104 20.8222 34.0184 19.4942 34.3264C18.6932 34.5124 17.7542 34.7624 17.4082 34.8824L16.7792 35.1004L16.3592 33.5004C16.1292 32.6204 15.9172 31.7984 15.8872 31.6734C15.8452 31.5004 16.2942 31.3504 17.7602 31.0434C20.3232 30.5074 20.4282 30.4064 20.1822 28.7214C20.0822 28.0404 19.8022 26.7234 19.5592 25.7944L19.1172 24.1064L19.6802 24.0134C20.3419 23.8964 21.0022 23.7724 21.6612 23.6414C22.4412 23.4884 23.1232 23.4054 23.1782 23.4574C23.2322 23.5084 23.5312 24.5434 23.8422 25.7564H23.8432ZM52.1702 25.0464C50.9202 25.3424 49.1042 26.9364 48.7582 28.0424C48.6902 28.2584 48.4682 28.6344 48.2632 28.8794C47.7732 29.4664 47.6752 29.9094 47.7732 31.1274C47.9282 33.0564 49.2602 35.0104 50.8162 35.5924C51.9122 36.0024 52.7782 36.0024 54.1062 35.5924C54.8762 35.3554 55.2992 35.1134 55.6932 34.6874C55.9892 34.3674 56.5852 33.7264 57.0182 33.2624C57.9872 32.2244 58.4452 31.0854 58.4452 29.7164C58.4452 28.3864 58.0852 27.4114 57.2452 26.4784C56.2392 25.3584 55.2052 24.8854 53.8072 24.9064C53.1952 24.9154 52.4592 24.9784 52.1702 25.0464ZM54.7502 27.0764C55.9922 27.6404 56.5142 28.6614 56.3632 30.2314C56.2362 31.5544 55.2032 32.4704 53.7192 32.5714C52.4772 32.6554 51.5782 32.1664 51.0692 31.1314C50.5102 29.9954 50.4632 29.3044 50.8832 28.4354C51.5672 27.0224 53.2952 26.4154 54.7502 27.0764Z" fill="black"/>
<path fill-rule="evenodd" clip-rule="evenodd" d="M24.655 0.342405C22.841 1.2164 21.8 3.42441 22.412 5.09541C22.539 5.44241 22.873 6.3644 23.154 7.1434C23.435 7.9234 23.91 9.1534 24.209 9.8774C24.509 10.6004 24.707 11.2384 24.651 11.2944C24.544 11.4024 22.268 11.8244 16.001 12.8974C13.929 13.2524 11.164 13.7814 9.858 14.0724C8.552 14.3634 7.058 14.6784 6.538 14.7724C5.175 15.0204 4.004 15.6414 3.445 16.4124C3.186 16.7704 2.305 18.3964 1.487 20.0254C0.396 22.2004 0 23.1474 0 23.5834C0 25.9614 1.466 33.0214 3.048 38.2564C3.508 39.7834 4.846 44.8234 5.534 47.6304C6.158 50.1754 7.79 54.9974 8.374 56.0204C9.071 57.2424 10.017 58.3794 10.577 58.6694C10.849 58.8094 11.752 59.0624 12.585 59.2304L14.099 59.5364L15.596 59.1474C16.419 58.9334 18.581 58.3654 20.401 57.8854C23.577 57.0474 26.101 56.3894 31.034 55.1124C32.29 54.7874 33.992 54.3374 34.815 54.1124C35.638 53.8884 38.225 53.2324 40.565 52.6544C42.905 52.0774 45.775 51.2694 46.945 50.8594C49.185 50.0744 54.458 48.4434 57.872 47.4804C58.986 47.1664 60.236 46.7374 60.649 46.5284C61.088 46.3054 62.242 45.3214 63.428 44.1584C64.543 43.0654 65.606 42.0664 65.791 41.9404C65.976 41.8144 66.353 41.2864 66.63 40.7674C67.035 40.0074 67.163 39.5244 67.29 38.2914L67.446 36.7604L65.922 31.4824C65.085 28.5804 63.987 24.4324 63.482 22.2674C62.978 20.1014 62.492 18.1384 62.404 17.9074C62.315 17.6754 62.065 16.6474 61.848 15.6224C61.355 13.2894 59.824 8.79041 59.23 7.9274C58.729 7.1984 57.992 6.5974 57.218 6.2854C56.522 6.0054 54.546 6.1364 51.828 6.6454C50.659 6.8634 48.32 7.22741 46.63 7.4534C44.94 7.6804 42.14 8.1434 40.407 8.4834C38.675 8.8224 36.2 9.2814 34.909 9.5034C33.618 9.7254 32.399 9.9474 32.202 9.9964C31.884 10.0764 31.816 9.9984 31.612 9.3244C31.486 8.9044 31.013 7.6044 30.562 6.4344C30.112 5.2644 29.462 3.5284 29.12 2.5744C28.307 0.314405 28.072 0.075405 26.583 0.011405C25.635 -0.028595 25.308 0.0264049 24.654 0.341405L24.655 0.342405ZM26.692 2.3624C26.963 2.4864 27.192 2.81641 27.408 3.39041C27.582 3.85541 27.913 4.6064 28.143 5.0604C28.515 5.7914 29.813 9.2904 30.033 10.1484C30.108 10.4464 29.993 10.5014 28.741 10.7644C27.874 10.9464 27.285 11.0004 27.144 10.9104C27.021 10.8314 26.755 10.3774 26.554 9.9004C26.352 9.4244 25.89 8.3604 25.527 7.5374C25.173 6.7359 24.8217 5.93323 24.473 5.1294L24.08 4.2184L24.428 3.4994C24.772 2.7884 25.506 2.1834 26.025 2.1824C26.173 2.1824 26.473 2.2624 26.692 2.3624ZM56.955 8.3934C57.377 8.6704 58.361 10.5174 58.895 12.0354C59.08 12.5594 59.439 14.0134 59.693 15.2654C60.806 20.7544 62.391 27.1264 64.119 33.0584C65.646 38.3034 65.647 38.0834 64.089 40.3904C62.726 42.4114 61.641 43.6624 60.51 44.5164C59.678 45.1454 57.787 45.9544 56.555 46.2084C55.563 46.4134 50.081 48.0234 47.103 48.9844C45.5 49.5014 42.452 50.3484 40.329 50.8674C32.94 52.6714 31.261 53.0694 29.695 53.3844C28.829 53.5584 26.667 54.0874 24.89 54.5584C21.347 55.4994 15.743 56.8784 14.256 57.1764C11.471 57.7334 10.446 56.6564 8.694 51.3324C8.253 49.9894 7.5 47.4024 7.022 45.5824C6.545 43.7624 5.752 40.8924 5.26 39.2024C4.768 37.5124 4.199 35.4564 3.995 34.6334C3.791 33.8104 3.411 32.3574 3.15 31.4034C2.8048 30.0978 2.48806 28.7848 2.2 27.4654C1.635 24.8534 1.67 24.2384 2.483 22.5034C2.788 21.8534 3.374 20.5554 3.786 19.6194C4.198 18.6834 4.664 17.7744 4.822 17.6004C5.29 17.0834 7.234 16.2554 8.586 15.9964C9.279 15.8634 10.838 15.6004 12.051 15.4094C13.264 15.2194 15.497 14.8564 17.014 14.6024C18.53 14.3484 21.082 13.9314 22.684 13.6754C29.013 12.6674 29.713 12.5434 30.324 12.3254C31.382 11.9444 41.146 10.2254 47.654 9.2734C50.08 8.9184 52.809 8.4914 53.719 8.3244C55.539 7.9904 56.366 8.0084 56.955 8.3944V8.3934Z" fill="#323239"/>
</svg>
