<svg width="20" height="20" viewBox="0 0 20 20" fill="none" xmlns="http://www.w3.org/2000/svg">
<path fill-rule="evenodd" clip-rule="evenodd" d="M9.99997 5.89209C9.4605 5.89209 8.92631 5.99835 8.4279 6.20479C7.9295 6.41124 7.47664 6.71383 7.09517 7.09529C6.71371 7.47676 6.41112 7.92962 6.20467 8.42803C5.99822 8.92643 5.89197 9.46062 5.89197 10.0001C5.89197 10.5396 5.99822 11.0737 6.20467 11.5722C6.41112 12.0706 6.71371 12.5234 7.09517 12.9049C7.47664 13.2863 7.9295 13.5889 8.4279 13.7954C8.92631 14.0018 9.4605 14.1081 9.99997 14.1081C11.0895 14.1081 12.1344 13.6753 12.9048 12.9049C13.6752 12.1345 14.108 11.0896 14.108 10.0001C14.108 8.91058 13.6752 7.86569 12.9048 7.09529C12.1344 6.3249 11.0895 5.89209 9.99997 5.89209ZM9.99997 12.6661C9.64545 12.673 9.29313 12.6091 8.9636 12.4781C8.63408 12.3472 8.33396 12.1519 8.08082 11.9036C7.82768 11.6553 7.62659 11.3591 7.48931 11.0321C7.35203 10.7052 7.28133 10.3542 7.28133 9.99959C7.28133 9.64501 7.35203 9.29399 7.48931 8.96706C7.62659 8.64013 7.82768 8.34385 8.08082 8.09557C8.33396 7.84728 8.63408 7.65196 8.9636 7.52104C9.29313 7.39012 9.64545 7.32622 9.99997 7.33309C10.6982 7.34661 11.3633 7.63349 11.8524 8.13208C12.3414 8.63068 12.6153 9.3012 12.6153 9.99959C12.6153 10.698 12.3414 11.3685 11.8524 11.8671C11.3633 12.3657 10.6982 12.6526 9.99997 12.6661Z" fill="white"/>
<path d="M15.2301 5.73002C15.2301 5.98463 15.1289 6.22881 14.9489 6.40884C14.7688 6.58888 14.5247 6.69002 14.2701 6.69002C14.0155 6.69002 13.7713 6.58888 13.5912 6.40884C13.4112 6.22881 13.3101 5.98463 13.3101 5.73002C13.3101 5.47541 13.4112 5.23123 13.5912 5.0512C13.7713 4.87116 14.0155 4.77002 14.2701 4.77002C14.5247 4.77002 14.7688 4.87116 14.9489 5.0512C15.1289 5.23123 15.2301 5.47541 15.2301 5.73002Z" fill="black"/>
<path fill-rule="evenodd" clip-rule="evenodd" d="M10 2C7.827 2 7.555 2.01 6.701 2.048C5.85 2.087 5.269 2.222 4.76 2.42C4.22611 2.62085 3.74251 2.93585 3.343 3.343C2.898 3.788 2.624 4.233 2.42 4.76C2.222 5.269 2.087 5.85 2.048 6.701C2.01 7.555 2 7.827 2 10C2 12.173 2.01 12.445 2.048 13.298C2.087 14.15 2.222 14.731 2.42 15.24C2.625 15.766 2.898 16.212 3.343 16.657C3.788 17.102 4.233 17.375 4.76 17.58C5.269 17.778 5.85 17.913 6.702 17.952C7.555 17.99 7.827 18 10 18C12.173 18 12.445 17.99 13.298 17.952C14.15 17.913 14.732 17.778 15.24 17.58C15.7739 17.3792 16.2575 17.0641 16.657 16.657C17.0641 16.2574 17.3791 15.7739 17.58 15.24C17.778 14.731 17.913 14.15 17.952 13.298C17.991 12.445 18 12.173 18 10C18 7.827 17.99 7.555 17.952 6.701C17.913 5.85 17.778 5.268 17.58 4.76C17.3792 4.22611 17.0641 3.74251 16.657 3.343C16.2574 2.9359 15.7739 2.62091 15.24 2.42C14.73 2.222 14.15 2.087 13.298 2.048C12.445 2.01 12.172 2 10 2ZM10 3.441C12.136 3.441 12.389 3.45 13.232 3.488C14.012 3.524 14.436 3.654 14.718 3.763C15.091 3.909 15.358 4.082 15.638 4.362C15.918 4.642 16.091 4.908 16.236 5.282C16.346 5.564 16.476 5.987 16.511 6.767C16.55 7.611 16.558 7.864 16.558 10C16.558 12.136 16.55 12.389 16.511 13.232C16.476 14.012 16.346 14.436 16.236 14.718C16.091 15.091 15.917 15.358 15.638 15.638C15.358 15.918 15.091 16.092 14.718 16.236C14.436 16.346 14.012 16.476 13.232 16.512C12.389 16.55 12.136 16.558 10 16.558C7.864 16.558 7.61 16.55 6.767 16.512C5.987 16.476 5.564 16.346 5.282 16.236C4.93455 16.1078 4.62019 15.9035 4.362 15.638C4.09595 15.3801 3.89125 15.0657 3.763 14.718C3.653 14.436 3.523 14.012 3.488 13.232C3.45 12.389 3.441 12.136 3.441 10C3.441 7.864 3.45 7.61 3.488 6.767C3.524 5.987 3.654 5.564 3.763 5.282C3.908 4.908 4.082 4.642 4.362 4.362C4.642 4.082 4.908 3.908 5.282 3.763C5.564 3.653 5.987 3.523 6.767 3.488C7.611 3.45 7.864 3.441 10 3.441Z" fill="white"/>
</svg>
