<svg width="32" height="59" viewBox="0 0 32 59" fill="none" xmlns="http://www.w3.org/2000/svg">
<path fill-rule="evenodd" clip-rule="evenodd" d="M23.8437 13.8979C24.7377 9.80494 25.3067 2.12493 17.9547 0.940935C11.7707 -0.0550651 9.20971 8.09493 8.32371 12.7539L6.58571 14.6199L5.16571 23.3229C4.58671 23.5829 3.42871 24.5359 3.42871 26.2769C3.42871 28.0169 4.06071 29.1779 4.37571 29.5409C4.11271 31.3019 3.74471 35.2609 4.37571 37.0009C4.69571 37.8809 5.47871 38.5579 6.52871 39.0829L6.28271 48.3549L4.08771 48.9709L2.98971 52.3449L1.89171 52.7069L0.428711 55.2469C2.79771 55.8169 9.11271 57.2979 15.4287 57.4229C21.7447 57.5469 28.0607 55.4019 30.4287 54.5209L30.0627 53.1679L28.2337 51.6189L27.1357 49.0799C26.7697 48.3549 26.1777 47.7539 25.6727 47.6299C25.1347 47.4969 24.9167 47.9719 24.6127 47.0379L24.4287 46.4839C24.0497 45.3639 23.6387 35.9659 23.4817 31.4059C23.4817 31.4059 24.2717 31.3749 24.9017 31.2509C25.6917 31.0949 26.9547 29.5409 26.9547 27.6809C26.4047 25.5039 24.9107 24.4159 23.4817 24.4159C24.3077 20.9469 25.1967 18.0129 25.3067 17.5239C25.6227 16.1249 24.7907 14.2639 23.8437 13.8969V13.8979ZM20.9157 32.0339C19.9487 35.8879 19.6937 39.3149 19.4517 39.5539C18.8207 40.1749 15.6087 40.1169 12.1347 39.6509C10.5267 39.4349 8.75671 39.0549 7.37871 38.5629C7.78471 40.4519 9.54471 43.9959 13.5327 45.2409C18.7127 46.8579 20.0757 45.5059 20.5497 44.3659L20.9157 32.0339Z" fill="white"/>
<path fill-rule="evenodd" clip-rule="evenodd" d="M8.66571 12.405C7.35571 13.519 6.65871 13.623 6.78971 14.915C6.80371 15.052 7.27971 16.33 7.21171 16.624C6.95471 17.728 6.74871 18.844 6.48671 19.947C6.29071 20.77 6.44971 21.148 6.99171 21.148C7.76971 21.148 7.64271 20.027 8.42771 20.027C10.0037 20.554 9.32771 22.737 8.26271 22.936C8.26271 22.936 7.93971 22.966 7.57271 22.936C6.88071 22.88 7.25871 21.116 6.48071 21.643C6.21471 21.823 3.64971 25.441 3.64271 26.093C3.62271 28.083 4.98271 29.045 5.81671 26.303C6.13171 25.999 6.36271 26.303 6.36271 26.303C6.44671 26.604 6.56771 26.83 6.69671 26.928C7.25671 27.354 7.57071 27.669 7.68571 28.234C7.85571 29.075 7.72071 29.913 7.27171 30.716C6.92871 31.328 6.21971 31.089 5.77771 30.603C5.77771 30.603 4.65971 33.418 4.63971 34.015C4.59671 35.299 5.05971 36.298 5.01071 37.619C4.99671 37.994 5.02271 38.063 5.28071 38.32C5.63371 38.673 6.12871 39.468 6.48071 39.535C6.49571 42.659 6.48071 45.03 6.13671 49.145C6.13671 49.145 4.29571 49.02 4.05771 49.233C3.66971 49.581 3.33171 51.774 3.33171 51.774L4.61171 52.254C3.85171 52.503 2.47671 52.556 1.82871 52.938C1.34671 53.222 0.428711 55.041 0.428711 55.041C2.32871 56.941 6.51371 56.538 9.05171 56.941C10.4747 57.166 15.2987 57.429 15.2987 57.429C15.4647 56.476 15.8127 55.979 15.9687 55.019C17.4927 55.019 24.3247 54.611 24.3247 52.369C24.3247 52.216 24.1617 52.139 23.8407 52.139C20.9617 53.022 18.4657 53.022 16.5457 53.205V51.429C19.3817 51.417 22.9287 51 26.1427 49.5C26.4727 49.354 27.1857 48.535 26.3527 48.007C25.8797 47.707 25.1667 48.209 24.6957 48.323C24.0257 48.486 22.0717 49.071 21.2237 49.145C21.2237 43.715 21.2337 37.648 21.5277 32.205C22.2327 32.309 23.0547 32.45 23.7487 32.261C24.0237 32.186 24.2497 31.691 24.3027 31.048L24.3427 30.558C23.7127 30.103 22.4627 30.196 22.4607 28.046C22.4577 25.896 24.6617 26.093 24.6617 26.093C25.8807 25.022 23.2547 24.111 22.4637 24.111C20.7727 24.111 19.1117 25.73 18.6077 27.193C18.1137 28.625 17.9667 30.784 19.1017 31.934C19.1977 32.032 19.2077 32.364 19.1557 33.907C19.1557 35.482 19.2177 37.267 18.9647 38.037C18.7117 38.807 18.2407 39.035 17.7437 38.794C15.2537 37.584 12.4207 37.305 9.69371 37.277C8.45371 37.264 7.40071 37.232 7.35571 37.204C6.87371 36.917 7.66671 36.653 7.83071 36.635C8.57571 36.555 11.2957 36.549 13.8937 36.624C17.1237 36.717 14.8907 35.669 12.8157 35.358C11.3607 35.14 9.12871 35.094 7.93171 35.291C7.46471 35.368 7.07371 35.397 7.03371 35.358C6.96071 35.288 7.27171 32.792 7.27171 32.792C7.27171 32.792 9.47671 33.042 10.4817 30.603C11.4537 28.607 10.3317 26.256 8.21671 25.625C7.72671 25.478 7.68571 25.448 7.68571 25.239C7.68571 24.951 7.80071 24.864 8.26371 24.808C9.21871 24.69 10.4997 23.287 10.8327 22.426C11.3307 21.138 10.7207 19.506 9.24771 19.305C8.96771 19.266 8.69871 19.198 8.65171 19.152C8.31271 18.824 8.90171 17.076 8.97471 16.612C9.03971 16.201 9.67771 16.248 10.0037 16.192C13.1827 15.651 16.2257 16.482 19.3117 17.02C20.5947 17.244 22.2837 17.706 23.4557 18.262C23.8467 18.448 26.1077 18.992 25.6557 17.842C25.1267 16.496 20.0887 15.498 18.8607 15.22C16.0407 14.583 13.0707 13.929 10.2037 14.357C9.75971 14.465 9.24771 14.554 9.24771 14.554C9.24771 14.554 9.62371 14.098 10.2037 13.519C10.9807 12.743 11.0117 12.736 13.6037 12.726C16.6407 12.715 19.4967 13.396 22.3087 14.554C22.7787 14.748 23.2467 14.924 23.7107 15.142C24.2727 15.406 24.7857 15.622 24.8507 15.622C25.0357 15.622 25.1757 15.402 25.1207 15.192C25.0767 15.022 24.2827 14.13 23.7487 13.717C21.9467 12.324 19.6047 11.532 17.1167 11.204C11.4737 10.462 13.6047 2.57104 13.6047 2.57104C9.97571 4.56904 10.2517 11.281 8.66471 12.405H8.66571ZM8.66571 40.126C8.52171 40.126 8.50371 40.161 8.54971 40.346C9.08571 42.525 11.8317 43.827 13.8337 44.363C15.0427 44.687 18.5657 45.227 19.5757 44.26C20.0447 43.813 19.7597 41.608 19.7837 40.921C16.6937 41.755 11.6987 41.284 8.66471 40.127L8.66571 40.126Z" fill="black"/>
<path fill-rule="evenodd" clip-rule="evenodd" d="M11.7998 2.29292C9.88983 4.25692 8.21483 8.46592 8.21483 11.3169C8.21483 11.7499 8.18883 11.7869 7.15083 12.8809C5.51983 14.4609 5.93483 16.0919 5.93483 16.0919C5.93483 16.0919 5.98083 16.3599 5.79283 17.3469C5.68783 17.8949 5.60783 18.8199 5.51983 19.1959C5.37344 19.8221 5.23343 20.4498 5.09983 21.0789C4.83483 22.3369 4.57883 22.5639 4.29083 22.8669C3.13383 24.0839 2.83483 25.0069 2.83583 26.1729C2.83683 26.7179 3.30783 27.5029 3.55983 27.8509C3.70683 28.0549 3.73783 28.2249 3.75783 28.9599C3.77183 29.4369 3.84383 30.0899 3.91983 30.4099C4.04583 30.9439 4.04683 31.0679 3.93383 31.9199C3.78883 33.0109 3.77583 34.6399 3.89883 36.2799C4.02483 37.9579 4.05383 38.0069 5.51183 39.0399L6.19383 39.5229L6.14083 40.6179C6.11083 41.2199 6.02883 42.2009 5.95883 42.7979C5.83283 43.8619 5.83683 44.5779 5.98183 46.9539L6.03183 47.7769H5.78383C5.31183 47.7769 4.23983 48.2489 3.80583 48.6489C3.43983 48.9859 3.38383 49.0839 3.23583 49.6649C2.97183 50.6949 2.82083 51.4679 2.84783 51.6569C2.86983 51.8149 2.82683 51.8369 2.42183 51.8809C1.67483 51.9599 1.51183 52.0979 1.10483 52.9979C0.954833 53.3279 0.677832 53.8579 0.488832 54.1719C0.0178324 54.9569 -0.0971674 55.3969 0.0768326 55.7559C0.313833 56.2449 0.858833 56.3959 4.01383 56.8539C4.64183 56.9459 5.46783 57.0879 5.84883 57.1709C6.23083 57.2539 6.94583 57.3949 7.43883 57.4859C10.0888 57.9729 10.1978 57.9879 12.7818 58.2239C14.6398 58.3929 18.6598 58.1979 20.1348 57.8679C20.4188 57.8039 20.8538 57.7289 21.0998 57.7009C21.3468 57.6719 21.7868 57.5979 22.0788 57.5369L23.6288 57.2109C24.1888 57.0939 24.8858 56.9289 25.1778 56.8439C26.1348 56.5669 28.1478 56.0639 28.5218 56.0099C29.1518 55.9169 30.2618 55.5979 30.6868 55.3849C31.2338 55.1119 31.3308 54.9149 31.2698 54.1989C31.1998 53.3669 31.0078 53.0529 30.0308 52.1609C29.0938 51.3049 28.9058 51.0069 28.4538 49.6649C28.0988 48.6119 27.7738 47.9739 27.4628 47.7149C27.2298 47.5219 26.4418 47.1549 25.9728 47.0219C25.2798 46.8249 25.2928 46.8589 24.9788 44.5649C24.9148 44.1009 24.8408 42.9079 24.8128 41.9149C24.7858 40.9199 24.7248 39.7639 24.6788 39.3449C24.6318 38.9249 24.5838 37.0889 24.5718 35.2639L24.5488 31.9469C26.8178 31.8989 27.6058 29.9489 27.8188 27.8849C28.0228 25.9069 26.1788 24.5789 24.5248 23.9019C24.5248 23.1509 25.3008 20.2679 25.6338 19.0579C26.7868 18.8449 26.3548 16.1659 26.0418 15.3779C25.7846 14.7053 25.398 14.0897 24.9038 13.5659C25.6528 8.96192 26.1168 3.22392 21.3108 0.786922C18.5708 -0.603078 14.2058 -0.182078 11.8008 2.29292H11.7998ZM18.8088 2.79392C21.9248 3.98892 22.6638 4.59392 23.1088 8.06392C23.3518 9.95692 22.9488 11.6939 22.8128 13.5659C22.7698 14.1659 23.3508 14.5399 23.5488 14.6669C24.0248 14.9749 24.5568 16.0819 24.5258 17.4869C23.8058 17.7669 23.4608 18.2629 23.3508 19.0579C23.1488 20.5239 22.0128 23.4939 22.5138 24.9989C22.7718 25.3149 23.5718 25.6769 24.3148 25.9919C26.1918 26.3999 26.4958 28.6499 25.3008 29.8919C24.9058 30.3029 23.6838 30.4559 23.2108 30.5959C23.0058 30.6559 22.7628 30.7759 22.6708 30.8609C22.5058 31.0129 22.5028 31.0809 22.5138 34.8159C22.5188 36.9689 22.4608 39.1889 22.5138 39.6899C22.5638 40.1759 22.6408 41.5129 22.6858 42.6619C22.7448 44.1849 22.8198 45.0649 22.9638 45.9139C23.1738 47.1579 23.2228 47.2909 23.6648 47.8309C23.9748 48.2109 24.9918 48.2549 25.6358 48.4439C26.2458 48.6209 26.5458 48.7949 26.6758 49.0439C26.7378 49.1639 26.9258 49.6789 27.0918 50.1869C27.2578 50.6949 27.4208 51.1469 27.4528 51.1909C27.4858 51.2349 27.6158 51.5169 27.7428 51.8179C27.9068 52.2069 28.0518 52.4169 28.2458 52.5469C28.7958 52.9149 29.7448 53.8789 29.7448 54.0689C29.7448 54.2379 29.6718 54.2689 28.9088 54.4389C27.6408 54.7199 26.1988 55.0669 25.3818 55.2879C23.8648 55.6979 21.5898 56.1869 20.5288 56.3299C20.2149 56.377 19.9021 56.4317 19.5908 56.4939C17.4438 56.9209 12.6778 56.9209 10.1308 56.4919C8.55983 56.2289 7.08383 55.9569 6.42083 55.8099C5.64083 55.6379 4.01983 55.3679 3.28083 55.2879C2.93344 55.2456 2.5881 55.1879 2.24583 55.1149L1.70083 54.9949L1.97583 54.5349C2.12583 54.2809 2.27383 53.9779 2.30383 53.8599C2.40183 53.4769 2.67083 53.2839 3.33483 53.1219C3.87183 52.9899 4.00883 52.9819 4.30083 53.0689C4.96583 53.2649 7.97683 53.7949 8.44283 53.7989C8.89483 53.8009 9.48683 53.6539 9.61083 53.5089C9.76083 53.3299 9.57583 53.0289 9.19983 52.8399C8.88983 52.6849 7.94683 52.4229 6.72583 52.1549C5.27583 51.8359 5.04783 51.7809 4.68383 51.6629C4.39283 51.5689 4.30283 51.5029 4.32883 51.4029C4.34883 51.3309 4.44883 50.9159 4.55283 50.4819C4.75983 49.6119 4.86683 49.4819 5.25283 49.6339C5.85483 49.8709 8.97383 50.4259 9.70683 50.4269C10.2918 50.4269 10.6838 50.2919 10.7758 50.0569C10.8378 49.8969 10.8638 49.9249 10.4488 49.7189C10.0958 49.5439 9.64283 49.4209 8.17383 49.1009C6.76583 48.7949 6.90183 48.8549 7.03583 48.6009C7.10083 48.4789 7.15283 48.3489 7.15383 48.3109C7.15383 48.2749 7.22783 48.1519 7.31683 48.0399C7.51183 47.7959 7.52483 47.3839 7.38683 45.7599C7.31483 44.9149 7.31583 44.3799 7.39183 43.4669C7.72583 39.4419 7.73083 39.2419 7.49583 38.8109C7.39583 38.6269 6.86083 38.1389 6.75883 38.1389C6.65883 38.1389 5.76783 37.2999 5.76783 37.2069C5.76783 37.1609 6.14383 36.9669 6.60383 36.7759C7.06383 36.5849 7.58383 36.3179 7.75883 36.1829L8.07783 35.9369L7.83983 35.8369C7.51183 35.6989 6.86783 35.7069 6.33583 35.8539C6.14835 35.9078 5.95888 35.9545 5.76783 35.9939C5.58783 36.0189 5.50283 33.5079 5.65783 32.7339C5.71783 32.4319 5.76783 32.0529 5.76883 31.8899C5.77083 31.5579 5.82683 31.4439 6.02883 31.3709C6.10383 31.3439 6.22683 31.2309 6.30083 31.1189C6.43083 30.9239 6.42383 30.8929 6.12783 30.2909C5.72083 29.4649 5.66583 28.7849 5.93483 27.9249C6.03683 27.6019 6.20883 27.2039 6.31883 27.0399C6.47883 26.7999 6.50683 26.6839 6.46383 26.4319C6.41183 26.1259 6.41683 26.1179 6.74183 25.9919C7.03083 25.8809 7.07183 25.8319 7.07183 25.6119C7.07183 25.4019 7.02683 25.3419 6.78983 25.2449C6.31683 25.0499 6.10683 25.0949 5.72683 25.4699C5.46283 25.7299 5.36683 25.8969 5.32183 26.1729C5.24983 26.6149 4.94583 27.2889 4.81583 27.2929C4.76383 27.2959 4.69683 27.1799 4.66783 27.0359C4.63323 26.8718 4.58678 26.7104 4.52883 26.5529C4.39983 26.2239 4.64583 25.4569 5.09983 24.7719C5.30683 24.4599 5.49583 24.1869 5.51983 24.1649C5.54383 24.1429 5.77483 23.9009 6.03283 23.6289C6.40083 23.2389 6.50283 23.0759 6.50783 22.8659C6.51383 22.5809 6.81183 21.8559 6.82183 22.0989C6.83183 22.3509 7.21883 23.0119 7.48183 23.2309C7.80183 23.4949 8.08183 23.4989 8.33983 23.2449C8.59183 22.9969 8.59183 22.8519 8.33683 22.3809C8.08683 21.9199 8.08183 21.6619 8.30683 21.0129C8.46883 20.5479 8.96983 19.7479 9.09983 19.7479C9.19083 19.7479 9.68183 19.2819 9.68183 19.1959C9.68183 19.0329 9.41783 18.8639 9.16683 18.8659C7.79483 18.8659 7.11183 20.3899 7.11183 20.3899C7.30783 19.1939 7.79483 17.3469 7.88383 16.2209C7.91183 16.1759 8.28383 16.0839 8.70883 16.0169C9.80683 15.8429 10.7188 15.5939 10.9948 15.3929C11.1248 15.2969 11.2318 15.1939 11.2318 15.1629C11.2318 15.1319 11.1058 14.9969 10.9518 14.8629C10.4318 14.4139 9.63783 14.3609 8.02183 14.6669C7.80883 14.7069 7.79583 14.6969 7.87483 14.5519C8.04383 14.2409 8.83483 13.5219 9.15483 13.3889C9.33283 13.3149 10.0018 13.0889 10.6418 12.8869C12.2798 12.3699 12.4388 11.5719 10.6418 11.5719C10.6388 10.3969 10.9668 9.41592 11.2988 8.31392C12.3368 4.87292 13.8018 1.79092 18.8088 2.79392Z" fill="#323239"/>
</svg>
