<svg width="56" height="62" viewBox="0 0 56 62" fill="none" xmlns="http://www.w3.org/2000/svg">
<path fill-rule="evenodd" clip-rule="evenodd" d="M33.1838 2.18328C32.3708 2.09128 31.3518 2.01728 30.5848 2.36928C30.4592 2.42698 30.3235 2.45925 30.1854 2.46421C30.0472 2.46918 29.9095 2.44675 29.7801 2.39823C29.6507 2.3497 29.5322 2.27603 29.4314 2.18147C29.3306 2.08691 29.2495 1.97333 29.1928 1.84728C29.0772 1.59212 29.0671 1.30161 29.1647 1.03901C29.2622 0.776417 29.4596 0.563016 29.7138 0.445284C30.8388 -0.0717156 32.2158 -0.0547159 33.4198 0.0812841C34.4988 0.202284 35.5348 0.234284 36.7048 0.321284C40.9488 0.639284 45.0318 2.22628 47.6728 5.73328C49.1968 7.75628 50.8968 10.3253 51.3028 12.8423C51.6928 15.2573 51.7448 17.4773 51.7688 19.8983C51.7748 20.4423 51.7818 21.0373 51.7358 21.6543C53.4868 23.0243 52.7088 26.6153 52.4898 28.5533C52.3918 29.4193 52.2498 30.2803 52.1188 31.1423C53.1088 32.5963 53.7038 34.2453 54.2768 35.8983C54.8508 37.5553 55.5808 39.6613 55.5848 41.6303C55.5898 44.0533 55.5788 46.6743 54.6448 48.9523C54.2948 49.8063 53.7488 50.7693 52.9368 51.3263C52.6048 51.5533 51.9898 51.8473 51.5468 52.0513C51.2388 52.1933 51.0448 52.2433 50.8868 52.5393C50.6808 52.9213 50.3718 53.4493 49.9488 54.0563C47.9228 56.9663 44.9008 59.2703 41.6158 60.5593C40.6848 60.9243 39.5858 61.1233 38.0258 61.3013C37.7518 61.3232 37.48 61.2376 37.2679 61.0626C37.0559 60.8876 36.9203 60.6369 36.8899 60.3637C36.8595 60.0905 36.9366 59.8161 37.105 59.5988C37.2733 59.3814 37.5197 59.2382 37.7918 59.1993C39.3228 59.0253 40.1918 58.8493 40.8558 58.5893C43.7328 57.4593 46.4508 55.3953 48.2288 52.8443C48.5988 52.3133 48.8658 51.8543 49.0388 51.5343C49.1218 51.3783 49.2038 51.2203 49.2768 51.0583C49.5078 50.5163 50.1868 50.3523 50.6748 50.1283C51.1628 49.9033 51.5998 49.6853 51.7548 49.5783C52.0498 49.3763 52.3988 48.8863 52.7018 48.1473C53.5268 46.1373 53.4878 43.7703 53.4838 41.6373C53.4798 39.9053 52.7598 37.9673 52.1188 36.0943C51.5988 34.5743 51.0448 33.2143 50.1728 32.0423C49.9068 31.6843 49.9688 31.2923 50.0328 30.8843C50.1618 30.0383 50.3028 29.1943 50.3988 28.3443C50.5828 26.7103 50.8568 24.9283 50.4278 23.3123C49.9718 22.9823 49.4738 22.7563 49.5778 22.0633C49.6798 21.3813 49.6748 20.6893 49.6678 19.8953C49.6428 17.5813 49.6008 15.4923 49.2278 13.1853C48.8798 11.0273 47.3078 8.75028 45.9978 7.01228C43.7228 3.99228 40.1878 2.70328 36.5458 2.43128C35.4988 2.35328 34.3048 2.30928 33.1838 2.18328Z" fill="#0CE51C"/>
<path fill-rule="evenodd" clip-rule="evenodd" d="M45.1807 10.0113C44.5747 8.89034 42.5197 6.33234 39.1467 5.07334C34.9297 3.49934 30.4537 2.99434 28.6317 3.33934C26.8077 3.68334 21.2577 6.62934 18.0997 11.4923C15.5737 15.3833 14.4487 17.4903 14.2017 18.0583L13.0717 18.3423C12.1747 19.3863 10.2197 22.1973 9.56367 25.0903C8.90767 27.9823 8.69967 31.5403 8.67667 32.9563C7.04367 33.6423 3.60367 35.5713 2.91267 37.8013C2.75567 38.3083 2.58267 38.8403 2.40467 39.3853C1.60467 41.8413 0.714666 44.5703 0.834666 46.4953C0.980666 48.8463 5.26567 54.6853 8.12667 56.1073C10.9867 57.5293 15.1147 58.6813 17.4657 58.5343C19.3457 58.4163 21.0337 57.3343 21.6427 56.8073C22.5897 57.7373 25.0797 59.6943 27.4527 60.0723C30.4217 60.5443 33.8107 60.9263 35.5457 60.1603C36.9327 59.5473 38.8777 59.0253 39.6757 58.8403C41.2697 58.1043 44.7317 56.1403 45.8317 54.1773C46.9317 52.2133 47.5807 50.8493 47.7667 50.4123C48.4797 50.5843 50.1147 50.5393 50.9487 48.9853C51.9917 47.0423 52.4527 41.7373 51.5817 39.7163C50.8847 38.0993 48.5877 33.7933 47.5257 31.8423C47.9357 30.6523 48.7017 27.9913 48.4987 26.8693C48.2957 25.7473 47.9147 24.3313 47.7507 23.7633C47.8337 22.2163 47.8767 18.5033 47.3867 16.0303C46.8967 13.5573 45.7117 10.9883 45.1807 10.0123V10.0113ZM20.8667 33.2313L16.8767 32.0943C17.5067 30.1503 18.9347 26.0083 19.5997 24.9843C20.1902 24.0817 20.7946 23.1883 21.4127 22.3043L21.5497 21.0833C22.3917 19.3013 24.8777 15.4423 28.0857 14.2653C31.2947 13.0893 34.4377 12.3253 35.6087 12.0923C36.0607 12.1423 37.0597 12.8593 37.4417 15.3203C37.8237 17.7803 38.1367 20.5263 38.2457 21.5923C37.9277 22.3803 37.1767 24.2463 36.7167 25.4023C36.2567 26.5603 35.5777 27.7923 35.2967 28.2643C33.9557 27.9763 30.6467 27.6033 28.1387 28.4193C25.6287 29.2353 22.2457 31.9673 20.8667 33.2313Z" fill="white"/>
<path fill-rule="evenodd" clip-rule="evenodd" d="M27.6865 2.95221C22.9515 4.05421 17.7865 10.6852 14.6185 16.7782C14.5925 17.0102 15.4055 19.4582 15.6625 19.7282C16.0295 20.1152 16.1855 20.1532 16.6755 19.9802C16.9245 19.8922 17.5055 19.4402 18.1835 18.3662C19.5225 16.2462 21.3235 14.8262 23.8755 12.6442C27.9355 9.17421 33.0835 6.92921 36.4775 12.7922C37.4385 14.4522 37.9785 16.7522 38.2525 19.4422C38.5875 22.7372 36.5195 23.6152 36.0945 27.3852C36.0945 27.3852 34.7255 27.3122 34.0025 27.1642C31.6515 26.6842 28.2105 27.3872 25.9655 28.8062C23.6455 30.2722 21.3655 32.6132 19.8375 35.0962L19.1075 36.2832C18.4225 36.0492 18.1175 35.7382 16.9425 35.6052C15.9225 35.4902 14.7025 35.1712 13.0135 36.2372C12.0285 36.8582 11.0715 38.2512 10.7175 39.8112C10.5485 40.5612 11.1685 40.6382 11.6755 39.9192C12.1575 39.2372 13.0945 39.1822 13.9765 38.8902C14.8795 38.5922 17.7145 39.3122 17.7145 39.3122C17.7145 39.3122 16.7505 42.7342 16.5425 44.4802C16.3555 46.0402 16.3615 46.1922 16.6385 47.2122C17.2215 49.3522 17.9085 51.4292 18.2485 52.0842C18.6465 52.8472 18.6235 52.8812 17.5295 53.1042C16.3545 53.3432 14.5505 52.9422 12.1005 51.8992C11.0825 51.4652 10.6945 51.1962 9.31053 49.9662C8.28053 49.0502 7.37253 48.0942 6.78253 47.3022C5.98853 46.2362 5.78553 45.8372 5.30953 44.3992C4.70553 42.5772 4.47153 41.0942 4.52953 39.4392C4.55953 38.5162 4.63353 38.1962 5.05653 37.1402C6.04753 34.6702 5.15653 34.2872 2.69153 38.2542C1.67153 39.8962 1.35253 44.7402 1.42353 46.6982C1.56053 50.4452 6.02353 54.9172 9.76653 56.8582C14.7065 59.4212 19.3275 58.5832 21.7215 56.5762C23.7595 58.4462 25.7075 59.0562 27.4935 59.7742C28.8745 60.3302 31.2215 60.6802 32.7035 60.5522C33.7395 60.4622 36.0875 58.3882 34.5335 58.0202C32.3335 57.5002 30.5065 56.7112 28.6785 53.6422C27.7755 52.1252 27.4835 51.4092 27.0265 49.5842C26.7325 48.4162 26.3305 46.8412 26.4225 46.0202L26.7055 43.5072C26.5855 43.4422 24.1525 43.3402 23.7115 43.3412C21.6515 43.3432 23.8015 39.2732 24.2975 38.1452C24.9375 36.6862 27.2425 35.2142 29.0855 33.5952C31.7795 31.2262 36.9865 30.6672 39.2105 27.7352C43.4525 20.9032 40.5205 8.91921 34.4425 4.61321C33.3365 3.83021 28.5235 2.75721 27.6875 2.95221H27.6865ZM12.8275 18.4892C12.2915 19.0852 11.9375 19.6862 11.8945 20.0692C11.8745 20.2542 11.6725 20.7842 11.4485 21.2472C10.5555 23.0902 9.15053 28.1692 8.88653 30.5042C8.79153 31.3492 8.81153 31.5872 8.99853 31.8372C9.40253 32.3802 10.2685 32.2132 10.6025 31.5292C10.6845 31.3612 11.1065 29.9432 11.5395 28.3792C12.3355 25.5012 13.6395 22.3572 14.8565 19.8992C15.3165 18.9712 14.1335 17.0322 12.8265 18.4892H12.8275Z" fill="black"/>
<path d="M35.3478 45.4933C35.7018 43.7793 36.7378 42.3973 38.1028 41.8193C38.8028 41.5233 39.0398 41.4873 39.6198 41.5943C40.9578 41.8423 42.1718 43.2933 42.2198 44.7043C42.2518 45.6633 41.9218 47.1743 41.4978 48.0063C40.7408 49.4953 39.5728 50.1403 37.9618 49.9613C37.2388 49.8813 37.0788 49.8073 36.4918 49.2793C35.3238 48.2283 35.0018 47.1633 35.3478 45.4933Z" fill="#323239"/>
<path fill-rule="evenodd" clip-rule="evenodd" d="M30.7757 1.03328C29.0658 0.961285 26.7318 2.10028 25.3088 2.79528L25.2788 2.80928C20.1148 5.33128 15.9748 10.7533 14.0358 16.0313C14.0358 16.0313 12.7528 15.7053 11.9038 17.0513C10.0458 19.9963 8.39975 24.2403 7.58375 29.2193L7.27675 31.9423C4.72675 33.4993 3.18375 35.1393 1.90175 37.9103C-0.72125 43.5823 -1.13325 50.6573 3.91675 54.6173C7.84575 57.6973 14.2668 61.8043 21.0768 58.9363L21.6238 58.5163L22.5838 59.1543C23.7878 59.9543 25.5658 60.8393 26.7498 61.2273C28.3218 61.7433 30.9878 61.8213 32.7578 61.7553C34.3478 61.6953 36.0388 60.8833 36.7838 60.4123C40.5798 60.2413 44.5638 58.8323 47.4468 54.1363C47.9888 53.2543 48.5527 52.1553 48.5527 52.1553C49.3218 52.2413 51.3088 50.7133 51.7228 50.1383C52.5948 48.9283 52.9948 47.3753 53.3488 44.3053C53.8538 39.8213 52.0197 35.1993 49.6157 31.5983C49.9937 30.7023 50.0658 29.9733 50.1458 29.1763C50.1928 28.7123 50.2418 28.2263 50.3538 27.6703C51.0258 24.3423 49.5508 15.3983 48.4858 12.2893C46.7918 7.34429 43.3657 4.13528 39.4258 2.60728C37.6128 1.90428 33.2217 1.13728 30.7757 1.03328ZM40.7407 6.18228C45.3877 9.00428 46.3098 13.5483 46.7848 18.8153L41.8717 16.9813C41.8548 15.4853 41.7158 14.3023 41.5918 13.6143C40.8688 10.9333 37.6078 6.13028 36.8678 6.99528C36.5438 7.37528 36.7607 7.59328 37.1847 8.01928C37.8517 8.68728 39.7348 12.2233 40.1268 15.3513C40.1268 15.3513 40.2498 16.0893 40.3118 17.1673L38.5518 17.9703C38.2298 12.6573 34.8768 8.09028 29.5368 8.40828C27.8348 8.64828 26.6698 8.99829 25.3538 10.0863C23.9967 11.2063 23.6338 11.6633 23.8058 12.0323C24.0708 12.5973 24.4558 12.4693 25.8938 11.3373C27.4198 10.1373 28.3717 9.88029 29.8368 9.73929C31.2167 9.60529 34.0578 10.6993 34.1577 11.1983C34.1807 11.3123 34.0527 11.3583 33.7897 11.3283C32.4837 11.1813 29.4147 12.1803 27.6017 13.3443C25.6217 14.6143 22.6818 17.5713 21.6288 19.3533L21.1088 20.2323L18.8568 19.8873C17.6187 19.6983 16.5568 19.4823 16.5568 19.4823L15.5708 17.4653C15.5708 17.4653 17.6648 13.1033 19.0448 11.3393C21.6047 8.06629 25.3187 5.09828 28.0807 4.11728C30.3368 3.31528 32.9568 3.84528 35.2628 4.31128C37.1608 4.69528 39.0687 5.16728 40.7407 6.18128V6.18228ZM38.5638 19.7473C38.4358 22.5213 37.6408 25.5193 36.1458 28.3473C35.9538 28.5003 35.3908 28.8313 34.8958 29.0823C33.8218 29.6263 31.5457 31.2783 29.5798 32.9423C28.4118 33.9303 27.9437 34.4473 26.9287 35.8723C25.3957 38.0243 24.8608 38.9403 24.2228 40.5033C23.6118 42.0033 23.6248 42.3023 24.3188 42.5793C25.1667 42.9193 25.5938 42.6093 26.2148 41.2113C27.2398 38.9013 29.1458 36.4213 30.9818 35.0143C31.9718 34.2543 34.0138 33.2243 35.3358 32.8143C36.1878 32.5513 37.8358 32.4123 38.7957 32.5243C40.8428 32.7613 43.1097 33.7103 44.5868 34.9473C47.4167 37.3163 49.0947 40.9373 49.0788 44.6503C49.0708 46.3553 49.0228 47.2543 48.7418 48.5483C48.6578 48.7883 48.7257 48.9203 48.9967 48.9503C50.5687 49.1283 50.6188 43.6753 50.5858 42.9513C50.4588 40.1603 49.1978 36.4393 46.8898 33.2143C46.0018 31.9723 46.1168 31.6503 46.3598 31.1403C46.9028 29.2283 47.1458 25.3073 46.9498 21.2033L41.8198 18.9693C41.7226 20.5662 41.4775 22.1506 41.0877 23.7023C40.5627 26.0393 40.1077 26.7623 38.3358 27.5143C38.3358 27.5143 39.6118 23.7903 40.1178 21.0573C40.2488 20.3473 40.3128 19.6233 40.3358 18.9383L38.5638 19.7473ZM35.5858 13.9003C37.9098 18.1823 37.3088 21.7143 35.2887 25.5933C32.4437 25.2733 29.7708 25.5473 27.1898 26.9083C25.0417 28.0403 23.1658 29.6283 21.4638 31.3423C20.5008 31.1183 20.4338 31.0963 19.4958 30.7793C20.1658 27.9923 21.3657 26.1413 22.8328 23.8813L22.8348 23.8773C23.0248 23.5853 23.2178 23.2873 23.4148 22.9783C23.5968 22.6943 23.5208 22.0613 23.4638 21.5843C23.4378 21.3673 23.4148 21.1823 23.4228 21.0773C23.5428 19.4283 27.0378 15.9643 29.7388 14.5773C31.6828 13.5793 33.7557 13.1453 34.8368 13.2413C35.1727 13.2713 35.3088 13.3913 35.5858 13.9003ZM14.2478 19.9303C14.5778 20.9183 15.1308 21.3733 16.9708 21.5803C18.6878 21.7743 20.2928 21.7313 20.4808 22.2003C19.1518 24.0643 17.6008 27.3193 16.9948 29.7103L16.9148 30.0373C16.8378 30.3693 16.7908 30.5733 16.6648 30.6993C16.4688 30.8993 16.0807 30.9093 15.0808 30.9353C14.8938 30.9403 14.6858 30.9453 14.4537 30.9533C12.8327 31.0033 11.4497 31.2193 10.5727 31.5553C10.2847 31.6653 9.99275 31.7503 9.92375 31.7423C9.78875 31.7273 9.96375 30.5313 10.4887 27.9063C10.8417 26.1313 11.2347 24.7693 11.8177 23.2913C12.3708 21.8883 13.6788 18.7763 13.7627 18.6633C13.9408 18.6833 14.0798 19.4323 14.2468 19.9313L14.2478 19.9303ZM33.3438 28.2323C33.2207 28.3103 32.5688 28.7113 31.8958 29.1223C31.2218 29.5323 29.8658 30.5243 28.8808 31.3263C26.1618 33.5393 24.6998 35.4433 23.3818 38.4863C22.3088 40.9633 22.0458 42.4723 22.5598 43.2023C22.9858 43.8073 24.8228 44.3623 25.4938 44.0883C25.7338 43.9903 25.7548 44.0593 25.7388 44.9063C25.6828 47.8013 25.9188 49.3903 26.7508 51.7053C27.5698 53.9823 28.0908 54.8583 29.2628 55.9323C30.9348 57.4623 32.4248 58.6513 33.8218 59.0293C32.9518 59.5453 31.0598 59.4663 30.1198 59.0613C25.8478 57.2243 22.8328 51.3033 22.1458 46.8723C22.0327 46.1423 21.9128 45.3853 21.8788 45.1923C21.8408 44.9803 21.7188 44.8303 21.5678 44.8133C20.8618 44.7333 20.8078 47.9313 21.4738 50.3663C22.0488 52.4723 23.0328 55.2193 24.6098 56.9503C25.1098 57.4983 25.4988 57.9643 25.4748 57.9853C25.3868 58.0653 23.6308 56.8223 22.9598 56.2973C20.5848 54.4393 19.1698 51.9053 18.2958 47.9473L18.0008 46.6113L18.3588 43.4893C18.7048 40.4753 18.7348 40.3253 19.2218 39.1853C20.6987 35.7323 22.7818 33.0963 25.7138 30.9753C27.4338 29.7283 28.8618 28.9653 30.1618 28.5973C31.1898 28.3053 32.8688 28.0193 33.2998 28.0633C33.5328 28.0873 33.5387 28.1083 33.3438 28.2333V28.2323ZM42.9088 36.0883C47.3448 38.9423 48.3418 44.5483 46.8768 49.2883C46.2738 51.2433 45.5368 52.6313 44.3517 54.0503C40.2318 58.9823 34.0778 59.2703 30.0877 54.1633C28.0677 51.5753 27.0528 49.0293 27.5508 44.6133C28.2218 37.1653 36.9458 31.5433 42.9088 36.0883ZM19.9768 33.5113C20.0288 33.5533 19.7498 34.0903 19.3568 34.7033L18.6438 35.8193L17.9738 35.6973C17.3958 35.5913 17.2528 35.6173 16.9168 35.8903C16.3998 36.3113 16.4488 36.6103 17.1088 37.0503C17.4098 37.2503 17.6798 37.4453 17.7088 37.4823C17.7378 37.5183 17.6698 37.7833 17.5588 38.0703L17.3568 38.5903L16.6798 38.3193C15.5998 37.8863 14.4637 37.9163 13.1648 38.4133C12.5647 38.6433 12.0768 38.7993 12.0808 38.7603C12.0848 38.7203 12.3538 38.3003 12.6778 37.8263C13.2858 36.9363 13.3528 36.5293 12.8998 36.4783C11.8728 36.3623 10.4837 38.5823 10.2417 40.7243C9.82675 44.4083 12.6518 48.6613 16.0358 49.4473L16.9258 49.6533L17.2478 50.7323C17.6798 52.1773 18.5748 53.8683 19.6808 55.3243C20.1808 55.9843 20.5898 56.5373 20.5878 56.5543C20.5858 56.5723 20.3128 56.7083 19.9808 56.8563C18.4908 57.5203 16.7068 57.6113 14.4008 57.1403C9.22575 56.0833 3.94375 52.3313 2.59075 46.8523C2.24475 45.4563 2.92675 41.8143 4.05075 39.0563C4.65275 37.5763 5.24675 36.8103 6.88775 35.3983C8.40075 34.0973 9.03775 33.7943 11.3317 33.2883C12.4427 33.0443 13.4537 32.9363 15.3747 32.8553C15.8597 32.8353 19.8418 33.4023 19.9778 33.5113H19.9768ZM16.3798 39.4993L16.9498 39.7163L16.7838 40.3353C16.6918 40.6753 16.5037 41.9633 16.3638 43.1953C16.1448 45.1403 16.1367 45.5683 16.3018 46.4413C16.4058 46.9943 16.4868 47.4913 16.4808 47.5453C16.4568 47.7543 15.3537 47.3473 14.5857 46.8463C12.6747 45.6003 11.1407 42.8753 11.5638 41.4783C11.8278 40.6053 13.3707 39.5543 14.6937 39.3463C15.5037 39.2183 15.6868 39.2353 16.3798 39.4993Z" fill="#323239"/>
</svg>
