<svg width="19" height="19" viewBox="0 0 19 19" fill="none" xmlns="http://www.w3.org/2000/svg">
<path fill-rule="evenodd" clip-rule="evenodd" d="M13.4304 15.1272C11.7296 16.399 9.61024 16.9794 7.49879 16.7515C5.38734 16.5237 3.44057 15.5045 2.05026 13.8992C0.659954 12.2938 -0.0706825 10.2214 0.00539662 8.09909C0.0814757 5.97675 0.958623 3.96199 2.46031 2.46031C3.96199 0.958623 5.97675 0.0814757 8.09909 0.00539662C10.2214 -0.0706825 12.2938 0.659954 13.8992 2.05026C15.5045 3.44057 16.5237 5.38734 16.7515 7.49879C16.9794 9.61024 16.399 11.7296 15.1272 13.4304L18.8484 17.1504L17.1516 18.8484L13.4316 15.1284L13.4304 15.1272ZM14.4 8.4C14.4 9.9913 13.7679 11.5174 12.6426 12.6426C11.5174 13.7679 9.9913 14.4 8.4 14.4C6.8087 14.4 5.28258 13.7679 4.15736 12.6426C3.03214 11.5174 2.4 9.9913 2.4 8.4C2.4 6.8087 3.03214 5.28258 4.15736 4.15736C5.28258 3.03214 6.8087 2.4 8.4 2.4C9.9913 2.4 11.5174 3.03214 12.6426 4.15736C13.7679 5.28258 14.4 6.8087 14.4 8.4Z" fill="#EFEFF1"/>
</svg>
