<svg width="16" height="16" viewBox="0 0 16 16" fill="none" xmlns="http://www.w3.org/2000/svg">
<path fill-rule="evenodd" clip-rule="evenodd" d="M9.45584 6.255L7.99984 3.125L6.54384 6.255L3.05384 6.74L5.60584 9.256L4.98984 12.741L7.99984 11.064L11.0098 12.741L10.3938 9.256L12.9468 6.74L9.45584 6.255ZM5.18984 4.424L0.989837 5.007C0.0578374 5.137 -0.328163 6.216 0.325837 6.86L3.45384 9.943L2.69884 14.215C2.53584 15.135 3.57484 15.818 4.42084 15.347L7.99984 13.354L11.5788 15.347C12.4248 15.817 13.4638 15.135 13.3008 14.215L12.5458 9.943L15.6738 6.86C16.3278 6.216 15.9418 5.137 15.0098 5.007L10.8098 4.424L9.05584 0.654C8.64984 -0.218 7.34984 -0.218 6.94384 0.654L5.18984 4.424Z" fill="white"/>
</svg>
