<svg width="14" height="16" viewBox="0 0 14 16" fill="none" xmlns="http://www.w3.org/2000/svg">
<path d="M13.69 6.473C12.9173 6.54464 12.1397 6.40451 11.4407 6.06767C10.7416 5.73082 10.1475 5.20996 9.722 4.561V11.139C9.7218 12.1004 9.43652 13.0402 8.90222 13.8395C8.36792 14.6387 7.60861 15.2616 6.7203 15.6294C5.832 15.9971 4.85459 16.0932 3.91169 15.9054C2.96878 15.7176 2.10273 15.2545 1.42305 14.5745C0.743366 13.8946 0.280579 13.0283 0.0932099 12.0854C-0.0941588 11.1424 0.00230631 10.165 0.370407 9.27685C0.738507 8.3887 1.36171 7.62964 2.16121 7.09567C2.9607 6.5617 3.90059 6.2768 4.862 6.277C4.964 6.277 5.064 6.287 5.163 6.292V8.688C5.063 8.676 4.965 8.657 4.863 8.657C4.20513 8.657 3.57421 8.91834 3.10902 9.38352C2.64384 9.84871 2.3825 10.4796 2.3825 11.1375C2.3825 11.7954 2.64384 12.4263 3.10902 12.8915C3.57421 13.3567 4.20513 13.618 4.863 13.618C6.233 13.618 7.443 12.538 7.443 11.168L7.467 0H9.758C9.863 0.995697 10.3146 1.92281 11.0339 2.61926C11.7532 3.31571 12.6944 3.73719 13.693 3.81V6.473" fill="white"/>
</svg>
