<svg width="14" height="16" viewBox="0 0 14 16" fill="none" xmlns="http://www.w3.org/2000/svg">
<path fill-rule="evenodd" clip-rule="evenodd" d="M2 4.99884C2.00022 4.06118 2.2641 3.14247 2.7615 2.34762C3.25891 1.55277 3.9698 0.913795 4.81301 0.503664C5.65621 0.0935327 6.59776 -0.0712305 7.53013 0.028186C8.46251 0.127603 9.34814 0.487192 10.0859 1.0659C10.8237 1.64461 11.3839 2.41911 11.7025 3.30097C12.0211 4.18284 12.0853 5.13653 11.8878 6.05315C11.6903 6.96977 11.2391 7.81239 10.5856 8.4848C9.93204 9.1572 9.10262 9.6323 8.192 9.85584C8.35425 10.198 8.6103 10.487 8.93036 10.6893C9.25042 10.8917 9.62134 10.999 10 10.9988H11C11.7956 10.9988 12.5587 11.3149 13.1213 11.8775C13.6839 12.4401 14 13.2032 14 13.9988V15.9988H12V13.9988C12 13.7336 11.8946 13.4793 11.7071 13.2917C11.5196 13.1042 11.2652 12.9988 11 12.9988H10C9.43241 12.9995 8.87122 12.8791 8.35388 12.6456C7.83654 12.4121 7.37498 12.0709 7 11.6448C6.62502 12.0709 6.16346 12.4121 5.64612 12.6456C5.12878 12.8791 4.56759 12.9995 4 12.9988H3C2.73478 12.9988 2.48043 13.1042 2.29289 13.2917C2.10536 13.4793 2 13.7336 2 13.9988V15.9988H0V13.9988C0 13.2032 0.316071 12.4401 0.87868 11.8775C1.44129 11.3149 2.20435 10.9988 3 10.9988H4C4.37866 10.999 4.74958 10.8917 5.06964 10.6893C5.3897 10.487 5.64575 10.198 5.808 9.85584C4.72151 9.58877 3.75592 8.96514 3.0656 8.08466C2.37528 7.20418 2.00009 6.11767 2 4.99884ZM7 7.99884C6.60603 7.99884 6.21593 7.92124 5.85195 7.77048C5.48797 7.61971 5.15726 7.39873 4.87868 7.12016C4.6001 6.84158 4.37913 6.51087 4.22836 6.14689C4.0776 5.78291 4 5.3928 4 4.99884C4 4.60487 4.0776 4.21476 4.22836 3.85079C4.37913 3.48681 4.6001 3.15609 4.87868 2.87752C5.15726 2.59894 5.48797 2.37796 5.85195 2.2272C6.21593 2.07644 6.60603 1.99884 7 1.99884C7.79565 1.99884 8.55871 2.31491 9.12132 2.87752C9.68393 3.44013 10 4.20319 10 4.99884C10 5.79449 9.68393 6.55755 9.12132 7.12016C8.55871 7.68277 7.79565 7.99884 7 7.99884Z" fill="white"/>
</svg>
