<svg width="18" height="13" viewBox="0 0 18 13" fill="none" xmlns="http://www.w3.org/2000/svg">
<path fill-rule="evenodd" clip-rule="evenodd" d="M7.16 9.017V3.664L11.863 6.341L7.16 9.017ZM17.624 1.98C17.5225 1.59681 17.3219 1.24706 17.0425 0.965875C16.763 0.684686 16.4146 0.481946 16.032 0.378C14.628 2.68221e-07 9 0 9 0C9 0 3.372 2.68221e-07 1.968 0.378C1.58568 0.482191 1.23746 0.68503 0.958223 0.966194C0.678989 1.24736 0.478554 1.59697 0.377 1.98C-2.98023e-08 3.393 0 6.34 0 6.34C0 6.34 -2.98023e-08 9.288 0.377 10.7C0.584 11.48 1.194 12.094 1.967 12.303C3.372 12.683 9 12.683 9 12.683C9 12.683 14.628 12.683 16.032 12.303C16.4145 12.1989 16.7628 11.9961 17.0422 11.7149C17.3217 11.4337 17.5223 11.0841 17.624 10.701C18 9.288 18 6.341 18 6.341C18 6.341 18 3.393 17.624 1.98Z" fill="white"/>
</svg>
